<?xml version="1.0" standalone="no"?>
  <!DOCTYPE svg PUBLIC "-//W3C//DTD SVG 1.1//EN" "http://www.w3.org/Graphics/SVG/1.1/DTD/svg11.dtd" >
  <svg>
  <metadata>
  Created by font-carrier
  </metadata>
  <defs>
  <font id="Strong-Regular" horiz-adv-x="1480" vert-adv-y="1480" >
    <font-face
      
      font-family="Strong"
      
      font-weight="400"
      
      font-stretch="normal"
      
      units-per-em="1000"
      
      ascent="944"
      
      descent="-250"
      
    />
      <missing-glyph />

      

      
      <glyph glyph-name="uni21" unicode="&#x21;" d="M68 170L58 580L58 750L128 750L128 579L120 170L68 170M103-8L85-8Q68-8 57.50 3Q47 14 47 30L47 48Q47 65 57.50 75.50Q68 86 85 86L103 86Q120 86 130.50 75.50Q141 65 141 48L141 30Q141 13 130.50 2.50Q120-8 103-8Z"  horiz-adv-x="186" vert-adv-y="1000"  />

      
      <glyph glyph-name="uni22" unicode="&#x22;" d="M81 519L76 700L133 700L127 519L81 519M202 519L197 700L254 700L248 519L202 519Z"  horiz-adv-x="330" vert-adv-y="1000"  />

      
      <glyph glyph-name="uni23" unicode="&#x23;" d="M162 447L162 505L267 505L319 718L378 700L330 505L494 505L546 718L605 700L557 505L667 505L667 447L543 447L497 255L586 255L586 197L483 197L431-15L372 0L419 197L256 197L204-15L145 0L192 197L81 197L81 255L206 255L253 447L162 447M316 447L270 255L433 255L480 447L316 447Z"  horiz-adv-x="749" vert-adv-y="1000"  />

      
      <glyph glyph-name="uni24" unicode="&#x24;" d="M251 650L281 650L381 622L363 561L281 585L173 585Q147 585 131.50 570Q116 555 116 526L116 506Q116 478 123 461.50Q130 445 152 431L339 311Q374 289 385 265.50Q396 242 396 207L396 175Q396 117 363 83.50Q330 50 271 50L251 50L251-40L191-40L191 50L142 50L43 77L60 138L142 114L269 114Q295 114 310.50 129.50Q326 145 326 173L326 198Q326 227 319.50 238.50Q313 250 287 267L108 380Q46 419 46 498L46 525Q46 582 79.50 616Q113 650 171 650L191 650L191 740L251 740L251 650Z"  horiz-adv-x="419" vert-adv-y="1000"  />

      
      <glyph glyph-name="uni25" unicode="&#x25;" d="M242-18L185 5L512 716L569 695L242-18M198 393L174 393Q117 393 86.50 424Q56 455 56 511L56 582Q56 638 86.50 669Q117 700 174 700L198 700Q255 700 285.50 669Q316 638 316 582L316 511Q316 455 285.50 424Q255 393 198 393M256 511L256 582Q256 644 198 644L174 644Q116 644 116 582L116 511Q116 449 174 449L198 449Q256 449 256 511M585 0L561 0Q504 0 473.50 31.50Q443 63 443 118L443 189Q443 246 473.50 276.50Q504 307 561 307L585 307Q642 307 672.50 276.50Q703 246 703 189L703 118Q703 63 672.50 31.50Q642 0 585 0M643 118L643 189Q643 251 585 251L561 251Q503 251 503 189L503 118Q503 56 561 56L585 56Q643 56 643 118Z"  horiz-adv-x="759" vert-adv-y="1000"  />

      
      <glyph glyph-name="uni26" unicode="&#x26;" d="M341 372L262 372L262 437L486 437L486 372L411 372L411 26L328 4Q322 2 314 0L151 0Q92 0 61.50 31Q31 62 31 120L31 300Q31 390 105 412L117 412L117 416L105 416Q54 442 54 513L54 580Q54 637 85 668.50Q116 700 174 700L310 700L410 672L392 611L310 635L176 635Q124 635 124 581L124 514Q124 437 186 437L243 437L243 372L180 372Q101 372 101 308L101 118Q101 64 153 64L314 64L341 72L341 372Z"  horiz-adv-x="486" vert-adv-y="1000"  />

      
      <glyph glyph-name="uni27" unicode="&#x27;" d="M81 519L76 700L133 700L127 519L81 519Z"  horiz-adv-x="209" vert-adv-y="1000"  />

      
      <glyph glyph-name="uni28" unicode="&#x28;" d="M141 300L165-80Q169-134 190.50-151.50Q212-169 261-169L261-230L251-230Q111-230 101-80L76 300L101 636Q112 786 251 786L261 786L261 725Q213 725 191 707.50Q169 690 165 636L141 300Z"  horiz-adv-x="302" vert-adv-y="1000"  />

      
      <glyph glyph-name="uni29" unicode="&#x29;" d="M137-80L161 300L137 636Q133 690 111 707.50Q89 725 41 725L41 786Q189 786 201 636L226 300L201-80Q191-230 41-230L41-169Q89-169 111-151.50Q133-134 137-80Z"  horiz-adv-x="302" vert-adv-y="1000"  />

      
      <glyph glyph-name="uni2a" unicode="&#x2a;" d="M299 391L224 502L150 391L103 422L188 530L58 567L74 621L202 574L197 710L252 710L247 574L374 621L391 567L261 530L345 422L299 391Z"  horiz-adv-x="444" vert-adv-y="1000"  />

      
      <glyph glyph-name="uni2b" unicode="&#x2b;" d="M76 254L76 315L200 315L200 439L261 439L261 315L385 315L385 254L261 254L261 130L200 130L200 254L76 254Z"  horiz-adv-x="461" vert-adv-y="1000"  />

      
      <glyph glyph-name="uni2c" unicode="&#x2c;" d="M115-5Q73-5 73 33L73 51Q73 68 83.50 78.50Q94 89 111 89L129 89Q146 89 156.50 78.50Q167 68 167 51L167 0L126-114L81-98L115-5Z"  horiz-adv-x="241" vert-adv-y="1000"  />

      
      <glyph glyph-name="uni2d" unicode="&#x2d;" d="M385 242L76 242L76 303L385 303L385 242Z"  horiz-adv-x="461" vert-adv-y="1000"  />

      
      <glyph glyph-name="uni2e" unicode="&#x2e;" d="M132-3L114-3Q98-3 87 7.50Q76 18 76 35L76 53Q76 70 86.50 80.50Q97 91 114 91L132 91Q149 91 159.50 80.50Q170 70 170 53L170 35Q170 18 159.50 7.50Q149-3 132-3Z"  horiz-adv-x="248" vert-adv-y="1000"  />

      
      <glyph glyph-name="uni2f" unicode="&#x2f;" d="M415 695L53-249L-7-225L355 719L415 695Z"  horiz-adv-x="410" vert-adv-y="1000"  />

      
      <glyph glyph-name="uni30" unicode="&#x30;" d="M352 635L193 635Q141 635 141 581L141 118Q141 64 193 64L352 64Q404 64 404 118L404 581Q404 635 352 635M354 0L191 0Q132 0 101.50 31Q71 62 71 120L71 580Q71 637 101.50 668.50Q132 700 191 700L354 700Q412 700 443 668.50Q474 637 474 580L474 120Q474 63 443 31.50Q412 0 354 0Z"  horiz-adv-x="545" vert-adv-y="1000"  />

      
      <glyph glyph-name="uni31" unicode="&#x31;" d="M366 64L366 0L16 0L16 64L156 64L156 635L41 593L29 656L156 700L226 700L226 64L366 64Z"  horiz-adv-x="382" vert-adv-y="1000"  />

      
      <glyph glyph-name="uni32" unicode="&#x32;" d="M159 700L311 700Q369 700 400 668.50Q431 637 431 580L431 455Q431 421 420 399Q409 377 381 354L171 171Q150 154 144 141.50Q138 129 138 107L138 64L438 64L438 0L68 0L68 107Q68 175 123 219L330 394Q350 410 355.50 420Q361 430 361 455L361 581Q361 635 309 635L159 635L77 611L59 672L159 700Z"  horiz-adv-x="499" vert-adv-y="1000"  />

      
      <glyph glyph-name="uni33" unicode="&#x33;" d="M228 410L320 410Q379 410 409.50 378.50Q440 347 440 290L440 120Q440 62 409.50 31Q379 0 320 0L135 0L36 27L53 88L135 64L318 64Q370 64 370 118L370 291Q370 345 318 345L143 345L143 410L338 635L42 635L42 700L422 700L422 634L228 410Z"  horiz-adv-x="506" vert-adv-y="1000"  />

      
      <glyph glyph-name="uni34" unicode="&#x34;" d="M336 208L336 586L97 208L336 208M21 209L336 700L406 700L406 208L490 208L490 145L406 145L406 0L336 0L336 145L21 145L21 209Z"  horiz-adv-x="521" vert-adv-y="1000"  />

      
      <glyph glyph-name="uni35" unicode="&#x35;" d="M77 700L430 700L430 635L147 635L147 423L208 441L333 441Q392 441 422.50 409.50Q453 378 453 321L453 120Q453 63 422.50 31.50Q392 0 333 0L150 0L51 27L68 88L150 64L326 64Q352 64 367.50 76.50Q383 89 383 118L383 322Q383 351 370 363.50Q357 376 331 376L211 376L145 357L77 357L77 700Z"  horiz-adv-x="517" vert-adv-y="1000"  />

      
      <glyph glyph-name="uni36" unicode="&#x36;" d="M191 700L357 700L456 672L439 611L357 635L193 635Q141 635 141 581L141 395Q171 420 216 420L354 420Q412 420 443 388.50Q474 357 474 300L474 120Q474 63 443 31.50Q412 0 354 0L191 0Q132 0 101.50 31Q71 62 71 120L71 580Q71 637 101.50 668.50Q132 700 191 700M193 64L352 64Q404 64 404 118L404 301Q404 355 352 355L216 355Q146 355 141 300L141 118Q141 64 193 64Z"  horiz-adv-x="535" vert-adv-y="1000"  />

      
      <glyph glyph-name="uni37" unicode="&#x37;" d="M398 700L398 635L183 0L113 0L327 635L13 635L13 700L398 700Z"  horiz-adv-x="410" vert-adv-y="1000"  />

      
      <glyph glyph-name="uni38" unicode="&#x38;" d="M186 0Q127 0 96.50 31Q66 62 66 120L66 253Q66 341 140 365L152 365L152 369L140 369Q89 394 89 466L89 580Q89 637 120 668.50Q151 700 209 700L346 700Q404 700 435 668.50Q466 637 466 580L466 466Q466 394 415 369L403 369L403 365L415 365Q489 341 489 253L489 120Q489 62 458.50 31Q428 0 369 0L186 0M356 325L199 325Q170 325 153 308.50Q136 292 136 261L136 118Q136 64 188 64L367 64Q419 64 419 118L419 261Q419 292 402 308.50Q385 325 356 325M344 635L211 635Q159 635 159 581L159 453Q159 423 176 406Q193 389 221 389L334 389Q362 389 379 406Q396 423 396 453L396 581Q396 635 344 635Z"  horiz-adv-x="555" vert-adv-y="1000"  />

      
      <glyph glyph-name="uni39" unicode="&#x39;" d="M349 0L183 0L83 27L101 88L183 64L347 64Q399 64 399 118L399 305Q368 280 324 280L186 280Q127 280 96.50 311Q66 342 66 400L66 580Q66 637 96.50 668.50Q127 700 186 700L349 700Q407 700 438 668.50Q469 637 469 580L469 120Q469 63 438 31.50Q407 0 349 0M347 635L188 635Q136 635 136 581L136 398Q136 344 188 344L324 344Q393 344 399 399L399 581Q399 635 347 635Z"  horiz-adv-x="540" vert-adv-y="1000"  />

      
      <glyph glyph-name="uni3a" unicode="&#x3a;" d="M132-3L114-3Q98-3 87 7.50Q76 18 76 35L76 53Q76 70 86.50 80.50Q97 91 114 91L132 91Q149 91 159.50 80.50Q170 70 170 53L170 35Q170 18 159.50 7.50Q149-3 132-3M132 362L114 362Q97 362 86.50 372.50Q76 383 76 400L76 418Q76 434 87 445Q98 456 114 456L132 456Q149 456 159.50 445.50Q170 435 170 418L170 400Q170 383 159.50 372.50Q149 362 132 362Z"  horiz-adv-x="248" vert-adv-y="1000"  />

      
      <glyph glyph-name="uni3b" unicode="&#x3b;" d="M128-5L116-5Q99-5 88.50 5.50Q78 16 78 33L78 51Q78 68 88.50 78.50Q99 89 116 89L134 89Q150 89 161 78.50Q172 68 172 51L172 0L131-114L94-101L128-5M137 362L119 362Q102 362 91.50 372.50Q81 383 81 400L81 418Q81 434 91.50 445Q102 456 119 456L137 456Q154 456 164.50 445.50Q175 435 175 418L175 400Q175 383 164.50 372.50Q154 362 137 362Z"  horiz-adv-x="256" vert-adv-y="1000"  />

      
      <glyph glyph-name="uni3c" unicode="&#x3c;" d="M372 168L372 97L71 278L71 319L372 499L372 429L151 300L372 168Z"  horiz-adv-x="438" vert-adv-y="1000"  />

      
      <glyph glyph-name="uni3d" unicode="&#x3d;" d="M385 359L76 359L76 420L385 420L385 359M385 209L76 209L76 270L385 270L385 209Z"  horiz-adv-x="461" vert-adv-y="1000"  />

      
      <glyph glyph-name="uni3e" unicode="&#x3e;" d="M66 97L66 168L286 300L66 429L66 499L367 319L367 278L66 97Z"  horiz-adv-x="438" vert-adv-y="1000"  />

      
      <glyph glyph-name="uni3f" unicode="&#x3f;" d="M337 493L337 577Q337 631 285 631L125 631L56 610L38 672L125 696L287 696Q345 696 376 664.50Q407 633 407 576L407 490Q407 444 397 416.50Q387 389 360 367L279 304Q257 287 250.50 272.50Q244 258 244 230L244 161L174 161L174 230Q174 305 228 345L308 404Q328 419 332.50 435.50Q337 452 337 493M220-10L202-10Q185-10 174.50 0.50Q164 11 164 28L164 46Q164 63 174.50 73.50Q185 84 202 84L220 84Q237 84 247.50 73.50Q258 63 258 46L258 28Q258 12 247 1Q236-10 220-10Z"  horiz-adv-x="445" vert-adv-y="1000"  />

      
      <glyph glyph-name="uni40" unicode="&#x40;" d="M422 529L183 529Q131 529 131 475L131 33Q131-21 183-21L578-21Q630-21 630 33L630 390L700 390L700 35Q700-22 669-53.50Q638-85 580-85L181-85Q122-85 91.50-54Q61-23 61 35L61 474Q61 531 91.50 562.50Q122 594 181 594L424 594Q482 594 513 562.50Q544 531 544 474L544 173L554 94L486 86L475 175L363 94L314 94Q255 94 224.50 125Q194 156 194 214L194 275Q194 332 224.50 363.50Q255 395 314 395L474 395L474 475Q474 529 422 529M316 158L345 158L474 252L474 333L316 333Q264 333 264 279L264 212Q264 158 316 158Z"  horiz-adv-x="765" vert-adv-y="1000"  />

      
      <glyph glyph-name="uni41" unicode="&#x41;" d="M386 279L293 635L261 635L167 279L386 279M151 215L95 0L26 0L209 700L344 700L527 0L458 0L401 215L151 215Z"  horiz-adv-x="553" vert-adv-y="1000"  />

      
      <glyph glyph-name="uni42" unicode="&#x42;" d="M151 64L372 64Q424 64 424 118L424 261Q424 292 407 308.50Q390 325 361 325L151 325L151 64M349 635L151 635L151 389L339 389Q367 389 384 406Q401 423 401 453L401 581Q401 635 349 635M374 0L81 0L81 700L351 700Q409 700 440 668.50Q471 637 471 580L471 466Q471 394 420 369L408 369L408 365L420 365Q494 341 494 253L494 120Q494 62 463.50 31Q433 0 374 0Z"  horiz-adv-x="555" vert-adv-y="1000"  />

      
      <glyph glyph-name="uni43" unicode="&#x43;" d="M191 700L358 700L458 672L440 611L358 635L193 635Q141 635 141 581L141 118Q141 64 193 64L370 64L452 88L469 27L370 0L191 0Q132 0 101.50 31Q71 62 71 120L71 580Q71 637 101.50 668.50Q132 700 191 700Z"  horiz-adv-x="505" vert-adv-y="1000"  />

      
      <glyph glyph-name="uni44" unicode="&#x44;" d="M81 700L376 700Q435 700 465.50 668.50Q496 637 496 580L496 120Q496 62 465.50 31Q435 0 376 0L81 0L81 700M374 635L151 635L151 64L374 64Q426 64 426 118L426 581Q426 635 374 635Z"  horiz-adv-x="567" vert-adv-y="1000"  />

      
      <glyph glyph-name="uni45" unicode="&#x45;" d="M81 700L430 700L430 635L151 635L151 399L380 399L380 334L151 334L151 64L450 64L450 0L81 0L81 700Z"  horiz-adv-x="486" vert-adv-y="1000"  />

      
      <glyph glyph-name="uni46" unicode="&#x46;" d="M81 700L420 700L420 635L151 635L151 399L370 399L370 334L151 334L151 0L81 0L81 700Z"  horiz-adv-x="456" vert-adv-y="1000"  />

      
      <glyph glyph-name="uni47" unicode="&#x47;" d="M196 700L367 700L466 672L449 611L367 635L198 635Q146 635 146 581L146 118Q146 64 198 64L382 64L410 72L410 294L297 294L297 360L480 360L480 24L396 0L196 0Q137 0 106.50 31Q76 62 76 120L76 580Q76 637 106.50 668.50Q137 700 196 700Z"  horiz-adv-x="541" vert-adv-y="1000"  />

      
      <glyph glyph-name="uni48" unicode="&#x48;" d="M499 700L499 0L429 0L429 326L151 326L151 0L81 0L81 700L151 700L151 390L429 390L429 700L499 700Z"  horiz-adv-x="580" vert-adv-y="1000"  />

      
      <glyph glyph-name="uni49" unicode="&#x49;" d="M151 0L81 0L81 700L151 700L151 0Z"  horiz-adv-x="232" vert-adv-y="1000"  />

      
      <glyph glyph-name="uni4a" unicode="&#x4a;" d="M144 0L112 0L21 25L38 86L112 64L151 64Q216 64 216 140L216 700L286 700L286 140Q286 72 249.50 36Q213 0 144 0Z"  horiz-adv-x="367" vert-adv-y="1000"  />

      
      <glyph glyph-name="uni4b" unicode="&#x4b;" d="M382 631L425 708L500 698L452 619L269 369L511 0L430 0L206 341L151 326L151 0L81 0L81 700L151 700L151 397L227 417L382 631Z"  horiz-adv-x="517" vert-adv-y="1000"  />

      
      <glyph glyph-name="uni4c" unicode="&#x4c;" d="M151 64L430 64L430 0L81 0L81 700L151 700L151 64Z"  horiz-adv-x="443" vert-adv-y="1000"  />

      
      <glyph glyph-name="uni4d" unicode="&#x4d;" d="M559 588L519 468L381 149L321 149L183 468L143 588L139 588L151 401L151 0L81 0L81 700L151 700L351 232L551 700L621 700L621 0L551 0L551 401L563 588L559 588Z"  horiz-adv-x="696" vert-adv-y="1000"  />

      
      <glyph glyph-name="uni4e" unicode="&#x4e;" d="M429 0L185 488L143 588L139 588L151 401L151 0L81 0L81 700L151 700L394 211L436 111L440 111L429 298L429 700L499 700L499 0L429 0Z"  horiz-adv-x="580" vert-adv-y="1000"  />

      
      <glyph glyph-name="uni4f" unicode="&#x4f;" d="M367 635L193 635Q141 635 141 581L141 118Q141 64 193 64L367 64Q419 64 419 118L419 581Q419 635 367 635M369 0L191 0Q132 0 101.50 31Q71 62 71 120L71 580Q71 637 101.50 668.50Q132 700 191 700L369 700Q427 700 458 668.50Q489 637 489 580L489 120Q489 63 458 31.50Q427 0 369 0Z"  horiz-adv-x="560" vert-adv-y="1000"  />

      
      <glyph glyph-name="uni50" unicode="&#x50;" d="M81 700L369 700Q427 700 458 668.50Q489 637 489 580L489 395Q489 338 458 306.50Q427 275 369 275L151 275L151 0L81 0L81 700M151 635L151 339L367 339Q419 339 419 393L419 581Q419 635 367 635L151 635Z"  horiz-adv-x="530" vert-adv-y="1000"  />

      
      <glyph glyph-name="uni51" unicode="&#x51;" d="M408-173L296-61L260 0L191 0Q132 0 101.50 31Q71 62 71 120L71 580Q71 637 101.50 668.50Q132 700 191 700L369 700Q427 700 458 668.50Q489 637 489 580L489 120Q489 63 458 31.50Q427 0 369 0L334 0L349-26L448-124L408-173M367 635L193 635Q141 635 141 581L141 118Q141 64 193 64L367 64Q419 64 419 118L419 581Q419 635 367 635Z"  horiz-adv-x="560" vert-adv-y="1000"  />

      
      <glyph glyph-name="uni52" unicode="&#x52;" d="M81 700L364 700Q422 700 453 668.50Q484 637 484 580L484 415Q484 358 453 326.50Q422 295 364 295L311 295L516 0L432 0L232 295L151 295L151 0L81 0L81 700M151 635L151 359L362 359Q414 359 414 413L414 581Q414 635 362 635L151 635Z"  horiz-adv-x="543" vert-adv-y="1000"  />

      
      <glyph glyph-name="uni53" unicode="&#x53;" d="M138 0L39 27L56 88L138 64L320 64Q346 64 361.50 79.50Q377 95 377 123L377 178Q377 206 372 217Q367 228 344 244L105 411Q47 452 47 518L47 575Q47 632 80.50 666Q114 700 172 700L330 700L429 672L412 611L330 635L174 635Q148 635 132.50 620Q117 605 117 576L117 526Q117 500 123 488Q129 476 150 461L392 292Q447 254 447 187L447 125Q447 67 414 33.50Q381 0 322 0L138 0Z"  horiz-adv-x="491" vert-adv-y="1000"  />

      
      <glyph glyph-name="uni54" unicode="&#x54;" d="M21 700L421 700L421 635L256 635L256 0L186 0L186 635L21 635L21 700Z"  horiz-adv-x="442" vert-adv-y="1000"  />

      
      <glyph glyph-name="uni55" unicode="&#x55;" d="M432 700L502 700L502 120Q502 62 471.50 31Q441 0 382 0L201 0Q142 0 111.50 31Q81 62 81 120L81 700L151 700L151 118Q151 64 203 64L380 64Q432 64 432 118L432 700Z"  horiz-adv-x="583" vert-adv-y="1000"  />

      
      <glyph glyph-name="uni56" unicode="&#x56;" d="M414 627L424 707L491 698L481 619L301 0L225 0L21 700L91 700L242 176L261 80L264 80L284 176L414 627Z"  horiz-adv-x="526" vert-adv-y="1000"  />

      
      <glyph glyph-name="uni57" unicode="&#x57;" d="M738 627L748 707L815 698L805 619L645 0L564 0L455 438L427 605L423 605L395 438L286 0L205 0L21 700L91 700L222 198L246 82L249 82L267 198L390 700L460 700L583 198L606 82L609 82L633 198L738 627Z"  horiz-adv-x="850" vert-adv-y="1000"  />

      
      <glyph glyph-name="uni58" unicode="&#x58;" d="M426 619L304 369L486 0L412 0L255 318L251 318L95 0L21 0L203 369L41 700L116 700L252 421L256 421L362 642L380 707L453 698L426 619Z"  horiz-adv-x="507" vert-adv-y="1000"  />

      
      <glyph glyph-name="uni59" unicode="&#x59;" d="M436 619L283 288L283 0L213 0L213 288L23 700L94 700L247 355L251 355L372 631L392 707L463 698L436 619Z"  horiz-adv-x="497" vert-adv-y="1000"  />

      
      <glyph glyph-name="uni5a" unicode="&#x5a;" d="M364 635L46 635L46 700L443 700L443 635L115 64L449 64L449 0L36 0L36 64L364 635Z"  horiz-adv-x="485" vert-adv-y="1000"  />

      
      <glyph glyph-name="uni5b" unicode="&#x5b;" d="M86 786L246 786L246 729L148 729L148-173L246-173L246-230L86-230L86 786Z"  horiz-adv-x="271" vert-adv-y="1000"  />

      
      <glyph glyph-name="uni5c" unicode="&#x5c;" d="M415-225L355-249L-7 695L53 719L415-225Z"  horiz-adv-x="410" vert-adv-y="1000"  />

      
      <glyph glyph-name="uni5d" unicode="&#x5d;" d="M123 729L25 729L25 786L185 786L185-230L25-230L25-173L123-173L123 729Z"  horiz-adv-x="271" vert-adv-y="1000"  />

      
      <glyph glyph-name="uni5e" unicode="&#x5e;" d="M169 619L69 449L2 449L150 700L190 700L338 449L270 449L169 619Z"  horiz-adv-x="341" vert-adv-y="1000"  />

      
      <glyph glyph-name="uni5f" unicode="&#x5f;" d="M566-61L6-61L6 0L566 0L566-61Z"  horiz-adv-x="572" vert-adv-y="1000"  />

      
      <glyph glyph-name="uni60" unicode="&#x60;" d="M96 915L225 778L194 752L47 863Q53 901 96 915Z"  horiz-adv-x="286" vert-adv-y="1000"  />

      
      <glyph glyph-name="uni61" unicode="&#x61;" d="M65 472L165 500L279 500Q338 500 368.50 468.50Q399 437 399 380L399 79L410 0L341-8L330 81L218 0L169 0Q111 0 80 31.50Q49 63 49 120L49 181Q49 238 80 269.50Q111 301 169 301L329 301L329 381Q329 435 277 435L165 435L83 411L65 472M171 64L200 64L329 158L329 239L171 239Q119 239 119 185L119 118Q119 64 171 64Z"  horiz-adv-x="470" vert-adv-y="1000"  />

      
      <glyph glyph-name="uni62" unicode="&#x62;" d="M301-10L71 11L71 659L60 741L129 750L141 658L141 456L253 500L301 500Q359 500 390 468.50Q421 437 421 380L421 110Q421 53 390 21.50Q359-10 301-10M258 435L141 389L141 68L299 54Q351 54 351 108L351 381Q351 435 299 435L258 435Z"  horiz-adv-x="482" vert-adv-y="1000"  />

      
      <glyph glyph-name="uni63" unicode="&#x63;" d="M181 500L291 500L390 472L373 411L291 435L183 435Q131 435 131 381L131 118Q131 64 183 64L296 64L378 88L395 27L296 0L181 0Q122 0 91.50 31Q61 62 61 120L61 380Q61 437 91.50 468.50Q122 500 181 500Z"  horiz-adv-x="415" vert-adv-y="1000"  />

      
      <glyph glyph-name="uni64" unicode="&#x64;" d="M209 64L336 134L336 413L222 435L177 435Q125 435 125 381L125 118Q125 64 177 64L209 64M336 660L325 743L394 752L406 660L406 78L416-1L348-9L338 64L225 0L175 0Q117 0 86 31.50Q55 63 55 120L55 380Q55 437 86 468.50Q117 500 175 500L222 500L336 478L336 660Z"  horiz-adv-x="482" vert-adv-y="1000"  />

      
      <glyph glyph-name="uni65" unicode="&#x65;" d="M181 0Q122 0 91.50 31Q61 62 61 120L61 380Q61 437 91.50 468.50Q122 500 181 500L276 500Q335 500 365.50 468.50Q396 437 396 380L396 276L341 227L131 227L131 118Q131 64 183 64L288 64L369 88L387 27L288 0L181 0M131 381L131 291L312 291L326 302L326 381Q326 435 274 435L183 435Q131 435 131 381Z"  horiz-adv-x="439" vert-adv-y="1000"  />

      
      <glyph glyph-name="uni66" unicode="&#x66;" d="M222 676Q170 676 170 622L170 500L302 500L302 434L170 434L170 0L100 0L100 434L12 434L12 491L100 500L100 621Q100 678 130.50 709.50Q161 741 220 741L260 741L347 717L329 656L260 676L222 676Z"  horiz-adv-x="335" vert-adv-y="1000"  />

      
      <glyph glyph-name="uni67" unicode="&#x67;" d="M175-166L280-166Q313-166 327-149Q341-132 341-95L341 62L231 0L181 0Q122 0 91.50 31Q61 62 61 120L61 390Q61 447 91.50 478.50Q122 510 181 510L411 488L411-95Q411-230 273-230L175-230L75-203L93-142L175-166M214 64L341 136L341 432L183 445Q131 445 131 391L131 118Q131 64 183 64L214 64Z"  horiz-adv-x="481" vert-adv-y="1000"  />

      
      <glyph glyph-name="uni68" unicode="&#x68;" d="M421 75L431 0L362-8L351 80L351 369Q351 406 338 420.50Q325 435 290 435L267 435L141 365L141 0L71 0L71 660L60 741L129 750L141 659L141 438L251 500L301 500Q359 500 390 468.50Q421 437 421 380L421 75Z"  horiz-adv-x="487" vert-adv-y="1000"  />

      
      <glyph glyph-name="uni69" unicode="&#x69;" d="M71 0L71 420L60 500L129 509L141 419L141 0L71 0M114 602L98 602Q82 602 72 611.50Q62 621 62 637L62 653Q62 669 72 679Q82 689 98 689L114 689Q130 689 139.50 679Q149 669 149 653L149 637Q149 621 139.50 611.50Q130 602 114 602Z"  horiz-adv-x="212" vert-adv-y="1000"  />

      
      <glyph glyph-name="uni6a" unicode="&#x6a;" d="M3-233L-27-226L-86-209L-68-148L-2-168L10-168Q43-168 57-151Q71-134 71-97L71 420L60 500L129 509L141 419L141-71Q141-154 110.50-193.50Q80-233 3-233M113 602L97 602Q81 602 71.50 611.50Q62 621 62 637L62 653Q62 669 71.50 679Q81 689 97 689L113 689Q129 689 139 679Q149 669 149 653L149 637Q149 621 139 611.50Q129 602 113 602Z"  horiz-adv-x="212" vert-adv-y="1000"  />

      
      <glyph glyph-name="uni6b" unicode="&#x6b;" d="M71 659L60 741L129 750L141 659L141 297L217 317L300 431L343 508L418 498L370 419L259 269L437 0L356 0L196 241L141 226L141 0L71 0L71 659Z"  horiz-adv-x="444" vert-adv-y="1000"  />

      
      <glyph glyph-name="uni6c" unicode="&#x6c;" d="M141 659L141 102Q142 77 151.50 67.50Q161 58 183 58L199 58L264 76L269 13L199-6L181-6Q120-6 95.50 26.50Q71 59 71 126L71 660L60 741L129 750L141 659Z"  horiz-adv-x="286" vert-adv-y="1000"  />

      
      <glyph glyph-name="uni6d" unicode="&#x6d;" d="M590 80L590 369Q590 406 577 420.50Q564 435 532 435L400 365L400 0L330 0L330 369Q330 405 317 420Q304 435 272 435L141 365L141 0L71 0L71 432L61 498L129 507L138 436L251 500L280 500Q366 500 392 433L511 500L540 500Q598 500 629 468.50Q660 437 660 380L660 76L670 0L601-8L590 80Z"  horiz-adv-x="731" vert-adv-y="1000"  />

      
      <glyph glyph-name="uni6e" unicode="&#x6e;" d="M421 76L431 0L362-8L351 80L351 381Q351 435 299 435L267 435L141 365L141 0L71 0L71 417L61 498L129 507L138 436L251 500L301 500Q359 500 390 468.50Q421 437 421 380L421 76Z"  horiz-adv-x="492" vert-adv-y="1000"  />

      
      <glyph glyph-name="uni6f" unicode="&#x6f;" d="M289 435L183 435Q131 435 131 381L131 118Q131 64 183 64L289 64Q341 64 341 118L341 381Q341 435 289 435M291 0L181 0Q122 0 91.50 31Q61 62 61 120L61 380Q61 437 91.50 468.50Q122 500 181 500L291 500Q350 500 380.50 468.50Q411 437 411 380L411 120Q411 62 380.50 31Q350 0 291 0Z"  horiz-adv-x="472" vert-adv-y="1000"  />

      
      <glyph glyph-name="uni70" unicode="&#x70;" d="M71 418L61 498L129 507L138 436L251 500L301 500Q359 500 390 468.50Q421 437 421 380L421 120Q421 63 390 31.50Q359 0 301 0L253 0L141 22L141-230L71-230L71 418M267 435L141 365L141 86L255 64L299 64Q351 64 351 118L351 381Q351 435 299 435L267 435Z"  horiz-adv-x="482" vert-adv-y="1000"  />

      
      <glyph glyph-name="uni71" unicode="&#x71;" d="M214 64L341 136L341 432L183 445Q131 445 131 391L131 118Q131 64 183 64L214 64M181 510L411 488L411-230L341-230L341 62L231 0L181 0Q122 0 91.50 31Q61 62 61 120L61 390Q61 447 91.50 478.50Q122 510 181 510Z"  horiz-adv-x="479" vert-adv-y="1000"  />

      
      <glyph glyph-name="uni72" unicode="&#x72;" d="M301 500L301 426L267 428L141 373L141 0L71 0L71 417L61 498L126 507L137 435L251 500L301 500Z"  horiz-adv-x="325" vert-adv-y="1000"  />

      
      <glyph glyph-name="uni73" unicode="&#x73;" d="M250 435L168 435Q140 435 127 421.50Q114 408 114 374Q114 365 116.50 357.50Q119 350 126.50 342.50Q134 335 137.50 332Q141 329 304 224Q354 192 354 123Q354 0 230 0L137 0L37 27L55 88L137 64L232 64Q284 64 284 118Q284 149 279 157.50Q274 166 257 177L112 272Q74 297 59 319Q44 341 44 377Q44 436 74.50 468Q105 500 164 500L250 500L349 472L332 411L250 435Z"  horiz-adv-x="398" vert-adv-y="1000"  />

      
      <glyph glyph-name="uni74" unicode="&#x74;" d="M226-3Q149 0 124.50 31Q100 62 100 152L100 434L12 434L12 490L100 500L100 546L93 602L160 623L170 543L170 500L304 500L304 434L170 434L170 118Q170 81 179.50 71.50Q189 62 220 62L295 82L312 21L226-3Z"  horiz-adv-x="331" vert-adv-y="1000"  />

      
      <glyph glyph-name="uni75" unicode="&#x75;" d="M71 419L61 498L129 507L141 415L141 118Q141 64 193 64L222 64L351 148L351 500L421 500L421 79L431 0L363-8L352 71L240 0L191 0Q132 0 101.50 31Q71 62 71 120L71 419Z"  horiz-adv-x="492" vert-adv-y="1000"  />

      
      <glyph glyph-name="uni76" unicode="&#x76;" d="M375 419L242 0L174 0L16 500L86 500L181 190L206 84L210 84L234 190Q282 348 307 427L317 507L385 498L375 419Z"  horiz-adv-x="416" vert-adv-y="1000"  />

      
      <glyph glyph-name="uni77" unicode="&#x77;" d="M336 274L312 400L308 400L284 274L222 0L149 0L16 500L86 500L163 190L182 84L186 84L204 190L280 500L340 500L416 190L435 84L439 84L457 190L516 427L525 507L592 498L582 419L471 0L398 0L336 274Z"  horiz-adv-x="620" vert-adv-y="1000"  />

      
      <glyph glyph-name="uni78" unicode="&#x78;" d="M216 305L284 431L312 511L387 500L353 420L265 262L413 0L337 0L217 220L213 220L92 0L16 0L164 262L32 500L109 500L212 305L216 305Z"  horiz-adv-x="429" vert-adv-y="1000"  />

      
      <glyph glyph-name="uni79" unicode="&#x79;" d="M351-95L351 70L240 0L191 0Q132 0 101.50 31Q71 62 71 120L71 419L61 498L129 507L141 415L141 118Q141 64 193 64L222 64L351 148L351 500L421 500L421-95Q421-230 283-230L185-230L85-203L103-142L185-166L290-166Q323-166 337-149Q351-132 351-95Z"  horiz-adv-x="492" vert-adv-y="1000"  />

      
      <glyph glyph-name="uni7a" unicode="&#x7a;" d="M123 434L43 420L35 489L123 500L391 500L391 434L123 66L318 66L398 80L406 11L318 0L41 0L41 66L308 434L123 434Z"  horiz-adv-x="432" vert-adv-y="1000"  />

      
      <glyph glyph-name="uni7b" unicode="&#x7b;" d="M21 273L21 333Q96 333 96 407L96 666Q96 723 126.50 754.50Q157 786 216 786L290 786L290 726L234 726Q195 726 176.50 714Q158 702 158 667L158 392Q158 363 146.50 337.50Q135 312 112 305L100 305L100 301L112 301Q135 294 146.50 269Q158 244 158 214L158-112Q158-147 176.50-159Q195-171 234-171L290-171L290-230L232-230Q159-230 127.50-197.50Q96-165 96-91L96 180Q96 231 80.50 252Q65 273 21 273Z"  horiz-adv-x="316" vert-adv-y="1000"  />

      
      <glyph glyph-name="uni7c" unicode="&#x7c;" d="M82-230L82 786L142 786L142-230L82-230Z"  horiz-adv-x="224" vert-adv-y="1000"  />

      
      <glyph glyph-name="uni7d" unicode="&#x7d;" d="M295 333L295 273Q257 273 238.50 255.50Q220 238 220 199L220-110Q220-167 189-198.50Q158-230 100-230L26-230L26-171L82-171Q121-171 139-159Q157-147 157-112L157 214Q157 243 168.50 268.50Q180 294 204 301L216 301L216 305L204 305Q181 312 169 337.50Q157 363 157 392L157 667Q157 702 139 714Q121 726 82 726L26 726L26 786L83 786Q151 786 185.50 757.50Q220 729 220 666L220 407Q220 333 295 333Z"  horiz-adv-x="316" vert-adv-y="1000"  />

      
      <glyph glyph-name="uni7e" unicode="&#x7e;" d="M55 363L55 373Q55 401 74.50 420.50Q94 440 121 440L149 440Q175 440 201 423L282 375Q290 371 295 371L320 371Q338 371 338 388L338 395L352 448L406 432L395 388L395 379Q395 350 375.50 331Q356 312 329 312L301 312Q275 312 249 328L168 376Q160 381 154 381L129 381Q112 381 112 364L112 357L98 304L44 319L55 363Z"  horiz-adv-x="450" vert-adv-y="1000"  />

      
      <glyph glyph-name="unia0" unicode="&#xa0;" d="Z"  horiz-adv-x="228" vert-adv-y="1000"  />

      
      <glyph glyph-name="unia1" unicode="&#xa1;" d="M120 337L130-73L130-243L60-243L60-72L68 337L120 337M85 515L103 515Q120 515 130.50 504.50Q141 494 141 477L141 459Q141 442 130.50 431.50Q120 421 103 421L85 421Q68 421 57.50 431.50Q47 442 47 459L47 477Q47 494 57.50 504.50Q68 515 85 515Z"  horiz-adv-x="186" vert-adv-y="1000"  />

      
      <glyph glyph-name="unia2" unicode="&#xa2;" d="M181 460L201 460L201 520L256 520L256 460L291 460L390 432L373 371L291 395L183 395Q131 395 131 341L131 158Q131 104 183 104L296 104L378 128L395 67L296 40L256 40L256-20L201-20L201 40L181 40Q122 40 91.50 71Q61 102 61 160L61 340Q61 397 91.50 428.50Q122 460 181 460Z"  horiz-adv-x="404" vert-adv-y="1000"  />

      
      <glyph glyph-name="unia3" unicode="&#xa3;" d="M399 0L86 0L86 308L19 308L19 369L86 369L86 580Q86 637 116.50 668.50Q147 700 206 700L327 700L426 672L409 611L327 635L208 635Q156 635 156 581L156 369L338 369L338 308L156 308L156 64L399 64L481 88L499 27L399 0Z"  horiz-adv-x="560" vert-adv-y="1000"  />

      
      <glyph glyph-name="unia4" unicode="&#xa4;" d="M105 101L63 143L101 181Q87 211 87 250L87 430Q87 470 99 495L59 536L101 578L141 538Q168 553 209 553L292 553Q332 553 359 538L399 579L441 537L400 495Q413 467 413 430L413 250Q413 210 399 182L438 143L396 101L357 139Q328 126 292 126L209 126Q172 126 143 139L105 101M292 498L209 498Q147 498 147 435L147 245Q147 181 209 181L292 181Q353 181 353 245L353 435Q353 498 292 498Z"  horiz-adv-x="502" vert-adv-y="1000"  />

      
      <glyph glyph-name="unia5" unicode="&#xa5;" d="M402 700L473 700L299 323L403 323L403 267L283 267L283 212L403 212L403 157L283 157L283 0L213 0L213 157L93 157L93 212L213 212L213 267L93 267L93 323L197 323L23 700L94 700L247 355L251 355L402 700Z"  horiz-adv-x="497" vert-adv-y="1000"  />

      
      <glyph glyph-name="unia6" unicode="&#xa6;" d="M82 310L82 700L142 700L142 310L82 310M82-230L82 160L142 160L142-230L82-230Z"  horiz-adv-x="224" vert-adv-y="1000"  />

      
      <glyph glyph-name="unia7" unicode="&#xa7;" d="M374 272L374 223Q374 151 317 124Q352 97 363 67.50Q374 38 374-20Q374-78 341-111.50Q308-145 249-145L143-145L43-118L61-57L143-81L247-81Q273-81 288.50-65.50Q304-50 304-22L304 9Q304 56 280 70L123 161Q70 192 54 219.50Q38 247 38 304L38 331Q38 408 101 432Q35 472 38 587Q40 644 72.50 678Q105 712 163 712L269 712L369 684L351 623L269 647L165 647Q139 647 123.50 632Q108 617 108 588L108 550Q108 509 141 490L289 405Q339 376 356.50 350Q374 324 374 272M137 232L260 161Q304 172 304 222Q304 279 296 304.50Q288 330 261 344L168 395Q108 388 108 332L108 310Q108 248 137 232Z"  horiz-adv-x="415" vert-adv-y="1000"  />

      
      <glyph glyph-name="unia8" unicode="&#xa8;" d="M129 813L112 813Q96 813 85.50 823.50Q75 834 75 850L75 867Q75 884 85.50 894Q96 904 112 904L129 904Q146 904 156 894Q166 884 166 867L166 850Q166 834 156 823.50Q146 813 129 813M294 813L277 813Q260 813 250 823.50Q240 834 240 850L240 867Q240 884 250 894Q260 904 277 904L294 904Q310 904 320.50 894Q331 884 331 867L331 850Q331 834 320.50 823.50Q310 813 294 813Z"  horiz-adv-x="400" vert-adv-y="1000"  />

      
      <glyph glyph-name="unia9" unicode="&#xa9;" d="M482 635L173 635Q121 635 121 581L121 118Q121 64 173 64L482 64Q534 64 534 118L534 581Q534 635 482 635M484 0L171 0Q112 0 81.50 31Q51 62 51 120L51 580Q51 637 81.50 668.50Q112 700 171 700L484 700Q542 700 573 668.50Q604 637 604 580L604 120Q604 63 573 31.50Q542 0 484 0M288 584L375 584L474 557L457 501L375 525L290 525Q233 525 233 466L233 233Q233 174 290 174L386 174L468 198L486 142L386 114L288 114Q230 114 199 145.50Q168 177 168 234L168 464Q168 521 199 552.50Q230 584 288 584Z"  horiz-adv-x="655" vert-adv-y="1000"  />

      
      <glyph glyph-name="uniaa" unicode="&#xaa;" d="M70 729L144 750L231 750Q275 750 298 726.50Q321 703 321 660L321 440L329 376L277 370L271 440L185 376L149 376Q105 376 82 399.50Q59 423 59 466L59 511Q59 554 82 577.50Q105 601 149 601L264 601L264 661Q264 697 230 697L144 697L83 679L70 729M150 428L172 428L264 494L264 551L150 551Q115 551 115 514L115 464Q115 428 150 428Z"  horiz-adv-x="385" vert-adv-y="1000"  />

      
      <glyph glyph-name="uniab" unicode="&#xab;" d="M145 289L332 111L296 70L53 272L53 309L295 511L331 470L145 292L145 289M383 289L570 111L534 70L291 272L291 309L533 511L569 470L383 292L383 289Z"  horiz-adv-x="615" vert-adv-y="1000"  />

      
      <glyph glyph-name="uniac" unicode="&#xac;" d="M321 229L76 229L76 290L386 290L386 114L321 114L321 229Z"  horiz-adv-x="462" vert-adv-y="1000"  />

      
      <glyph glyph-name="uniad" unicode="&#xad;" d="M386 244L76 244L76 305L386 305L386 244Z"  horiz-adv-x="462" vert-adv-y="1000"  />

      
      <glyph glyph-name="uniae" unicode="&#xae;" d="M484 0L171 0Q112 0 81.50 31Q51 62 51 120L51 580Q51 637 81.50 668.50Q112 700 171 700L484 700Q542 700 573 668.50Q604 637 604 580L604 120Q604 63 573 31.50Q542 0 484 0M482 635L173 635Q121 635 121 581L121 118Q121 85 141.50 74.50Q162 64 201 64L482 64Q534 64 534 118L534 581Q534 635 482 635M181 584L372 584Q482 584 482 474L482 410Q482 300 364 300L476 114L402 114L296 300L246 300L246 115L181 115L181 584M246 525L246 359L365 359Q394 359 405.50 371.50Q417 384 417 413L417 466Q417 500 404 512.50Q391 525 355 525L246 525Z"  horiz-adv-x="655" vert-adv-y="1000"  />

      
      <glyph glyph-name="uniaf" unicode="&#xaf;" d="M306 810L96 810L96 859L306 859L306 810Z"  horiz-adv-x="402" vert-adv-y="1000"  />

      
      <glyph glyph-name="unib0" unicode="&#xb0;" d="M255 535L255 607Q255 630 253 641.50Q251 653 239 663Q227 673 204 673L176 673Q117 673 117 626L117 553Q117 530 119 518.50Q121 507 132.50 498Q144 489 167 489L196 489Q255 489 255 535M213 437L173 437Q61 437 61 535L61 626Q61 673 86 698.50Q111 724 159 724L213 724Q261 724 286 698.50Q311 673 311 626L311 535Q311 489 285.50 463Q260 437 213 437Z"  horiz-adv-x="372" vert-adv-y="1000"  />

      
      <glyph glyph-name="unib1" unicode="&#xb1;" d="M76 284L76 345L200 345L200 469L261 469L261 345L385 345L385 284L261 284L261 160L200 160L200 284L76 284M385 35L76 35L76 96L385 96L385 35Z"  horiz-adv-x="461" vert-adv-y="1000"  />

      
      <glyph glyph-name="unib2" unicode="&#xb2;" d="M95 750L179 750Q212 750 230 731.50Q248 713 248 680L248 619Q248 585 220 561L104 464Q88 451 88 426L252 426L252 375L29 375L29 433Q29 453 35.50 465.50Q42 478 60 493L175 591Q186 600 189 606Q192 612 192 624L192 670Q192 699 163 699L95 699L45 686L31 735L95 750Z"  horiz-adv-x="298" vert-adv-y="1000"  />

      
      <glyph glyph-name="unib3" unicode="&#xb3;" d="M139 600L177 600Q212 600 231 582Q250 564 250 531L250 444Q250 412 232 393.50Q214 375 181 375L80 375L26 389L36 437L80 426L166 426Q194 426 194 455L194 520Q194 548 166 548L72 548L72 600L170 700L170 704L116 698L27 698L27 750L240 750L240 698L139 600Z"  horiz-adv-x="306" vert-adv-y="1000"  />

      
      <glyph glyph-name="unib4" unicode="&#xb4;" d="M51 778L180 915Q221 900 226 861L79 750L51 778Z"  horiz-adv-x="289" vert-adv-y="1000"  />

      
      <glyph glyph-name="unib5" unicode="&#xb5;" d="M66 419L56 498L124 507L136 415L136 118Q136 64 188 64L217 64L346 148L346 500L416 500L416 79L426 0L358-8L347 71L235 0L186 0Q142 0 124 21L136-83L136-230L66-230L66 419Z"  horiz-adv-x="482" vert-adv-y="1000"  />

      
      <glyph glyph-name="unib6" unicode="&#xb6;" d="M415 700L415-230L345-230L345 635L246 635L246-230L176-230L176 405L116 405Q63 405 34.50 434Q6 463 6 515L6 590Q6 642 34.50 671Q63 700 116 700L415 700Z"  horiz-adv-x="471" vert-adv-y="1000"  />

      
      <glyph glyph-name="unib7" unicode="&#xb7;" d="M148 310L130 310Q114 310 103 321Q92 332 92 348L92 366Q92 383 102.50 393.50Q113 404 130 404L148 404Q165 404 175.50 393.50Q186 383 186 366L186 348Q186 331 175.50 320.50Q165 310 148 310Z"  horiz-adv-x="248" vert-adv-y="1000"  />

      
      <glyph glyph-name="unib8" unicode="&#xb8;" d="M39-158L89-170L174-170Q196-170 196-145L196-121Q196-95 174-95L145-95Q117-95 102-108L51-96L83 0L140 0L132-23L109-50L112-53Q129-42 146-42L167-42Q253-42 253-121L253-135Q253-182 233.50-203Q214-224 166-224L89-224L28-210L39-158Z"  horiz-adv-x="304" vert-adv-y="1000"  />

      
      <glyph glyph-name="unib9" unicode="&#xb9;" d="M218 423L218 375L6 375L6 423L87 423L87 698L28 670L7 709L87 750L143 750L143 423L218 423Z"  horiz-adv-x="229" vert-adv-y="1000"  />

      
      <glyph glyph-name="uniba" unicode="&#xba;" d="M249 697L170 697Q134 697 134 661L134 463Q134 427 170 427L249 427Q284 427 284 463L284 661Q284 697 249 697M251 375L168 375Q124 375 101 398.50Q78 422 78 465L78 660Q78 703 101 726.50Q124 750 168 750L251 750Q294 750 317 726Q340 702 340 660L340 465Q340 422 317 398.50Q294 375 251 375Z"  horiz-adv-x="417" vert-adv-y="1000"  />

      
      <glyph glyph-name="unibb" unicode="&#xbb;" d="M295 111L482 289L482 292L296 470L332 511L574 309L574 272L331 70L295 111M57 111L244 289L244 292L58 470L94 511L336 309L336 272L93 70L57 111Z"  horiz-adv-x="615" vert-adv-y="1000"  />

      
      <glyph glyph-name="unibc" unicode="&#xbc;" d="M264 203L264 155L52 155L52 203L133 203L133 478L74 450L53 489L133 530L189 530L189 203L264 203M282-21L234-6L449 555L497 540L282-21M645 381L645 126L685 126L685 75L645 75L645 6L591 6L591 75L428 75L428 126L591 381L645 381M489 126L591 126L591 290L489 126Z"  horiz-adv-x="749" vert-adv-y="1000"  />

      
      <glyph glyph-name="unibd" unicode="&#xbd;" d="M263 203L263 155L51 155L51 203L132 203L132 478L73 450L52 489L132 530L188 530L188 203L263 203M282-21L234-6L449 555L497 540L282-21M534 376L618 376Q651 376 669 357.50Q687 339 687 306L687 245Q687 211 659 187L543 90Q527 77 527 52L691 52L691 1L468 1L468 59Q468 79 474.50 91.50Q481 104 499 119L614 217Q625 226 628 232Q631 238 631 250L631 296Q631 325 602 325L534 325L484 312L470 361L534 376Z"  horiz-adv-x="749" vert-adv-y="1000"  />

      
      <glyph glyph-name="unibe" unicode="&#xbe;" d="M160 383L198 383Q233 383 252 365Q271 347 271 314L271 227Q271 195 253 176.50Q235 158 202 158L101 158L47 172L57 220L101 209L187 209Q215 209 215 238L215 303Q215 331 187 331L93 331L93 383L191 483L191 487L137 481L48 481L48 533L261 533L261 481L160 383M286-21L238-6L453 555L501 540L286-21M644 376L644 121L684 121L684 70L644 70L644 1L590 1L590 70L427 70L427 121L590 376L644 376M488 121L590 121L590 285L488 121Z"  horiz-adv-x="749" vert-adv-y="1000"  />

      
      <glyph glyph-name="unibf" unicode="&#xbf;" d="M108-47L108-131Q108-185 160-185L320-185L389-164L407-226L320-250L158-250Q100-250 69-218.50Q38-187 38-130L38-44Q38 2 48 29.50Q58 57 85 79L166 142Q188 159 194.50 173.50Q201 188 201 216L201 285L271 285L271 216Q271 141 217 101L137 42Q117 27 112.50 10.50Q108-6 108-47M225 456L243 456Q260 456 270.50 445.50Q281 435 281 418L281 400Q281 383 270.50 372.50Q260 362 243 362L225 362Q208 362 197.50 372.50Q187 383 187 400L187 418Q187 434 197.50 445Q208 456 225 456Z"  horiz-adv-x="445" vert-adv-y="1000"  />

      
      <glyph glyph-name="unic0" unicode="&#xc0;" d="M386 279L293 635L261 635L167 279L386 279M151 215L95 0L26 0L209 700L344 700L527 0L458 0L401 215L151 215M326 799L310 761L131 806Q128 816 128 825Q128 854 154 875L326 799Z"  horiz-adv-x="553" vert-adv-y="1000"  />

      
      <glyph glyph-name="unic1" unicode="&#xc1;" d="M386 279L293 635L261 635L167 279L386 279M151 215L95 0L26 0L209 700L344 700L527 0L458 0L401 215L151 215M403 875Q429 854 429 825Q429 816 426 806L247 761L231 799L403 875Z"  horiz-adv-x="553" vert-adv-y="1000"  />

      
      <glyph glyph-name="unic2" unicode="&#xc2;" d="M386 279L293 635L261 635L167 279L386 279M151 215L95 0L26 0L209 700L344 700L527 0L458 0L401 215L151 215M308 896L419 774L389 750L280 835L276 835L167 750L137 774L249 896Q276 904 308 896Z"  horiz-adv-x="553" vert-adv-y="1000"  />

      
      <glyph glyph-name="unic3" unicode="&#xc3;" d="M386 279L293 635L261 635L167 279L386 279M151 215L95 0L26 0L209 700L344 700L527 0L458 0L401 215L151 215M348 773L329 773Q305 773 282 789L240 820Q230 828 215 828L206 828Q192 828 186.50 824.50Q181 821 181 809L181 798L171 765L125 787L131 812L131 828Q131 861 148 873.50Q165 886 199 886L221 886Q244 886 265 872Q269 869 277.50 862.50Q286 856 289.50 853.50Q293 851 299.50 846.50Q306 842 309 840Q312 838 316.50 835.50Q321 833 324.50 832Q328 831 331 831L341 831Q355 831 360.50 834.50Q366 838 366 850L366 861L376 894L425 880L416 847L416 831Q416 798 399 785.50Q382 773 348 773Z"  horiz-adv-x="553" vert-adv-y="1000"  />

      
      <glyph glyph-name="unic4" unicode="&#xc4;" d="M386 279L293 635L261 635L167 279L386 279M151 215L95 0L26 0L209 700L344 700L527 0L458 0L401 215L151 215M204 792L187 792Q171 792 160.50 802.50Q150 813 150 829L150 846Q150 863 160.50 873Q171 883 187 883L204 883Q221 883 231 873Q241 863 241 846L241 829Q241 813 231 802.50Q221 792 204 792M369 792L352 792Q335 792 325 802.50Q315 813 315 829L315 846Q315 863 325 873Q335 883 352 883L369 883Q385 883 395.50 873Q406 863 406 846L406 829Q406 813 395.50 802.50Q385 792 369 792Z"  horiz-adv-x="553" vert-adv-y="1000"  />

      
      <glyph glyph-name="unic5" unicode="&#xc5;" d="M386 279L293 635L261 635L167 279L386 279M151 215L95 0L26 0L209 700L344 700L527 0L458 0L401 215L151 215M267 795L289 795Q330 795 330 835L330 841Q330 861 321 870.50Q312 880 289 880L267 880Q244 880 235 870.50Q226 861 226 841L226 835Q226 795 267 795M300 754L256 754Q219 754 198 775.50Q177 797 177 833L177 844Q177 881 198 902Q219 923 256 923L300 923Q337 923 358 902Q379 881 379 844L379 833Q379 797 357.50 775.50Q336 754 300 754Z"  horiz-adv-x="553" vert-adv-y="1000"  />

      
      <glyph glyph-name="unic6" unicode="&#xc6;" d="M209 700L723 700L723 635L444 635L444 399L673 399L673 334L444 334L444 64L743 64L743 0L374 0L374 215L151 215L95 0L26 0L209 700M261 635L167 279L374 279L374 635L261 635Z"  horiz-adv-x="779" vert-adv-y="1000"  />

      
      <glyph glyph-name="unic7" unicode="&#xc7;" d="M191-158L241-170L326-170Q348-170 348-145L348-121Q348-95 326-95L297-95Q269-95 254-108L203-96L235 0L191 0Q132 0 101.50 31Q71 62 71 120L71 580Q71 637 101.50 668.50Q132 700 191 700L358 700L458 672L440 611L358 635L193 635Q141 635 141 581L141 118Q141 64 193 64L370 64L452 88L469 27L370 0L292 0L284-23L261-50L264-53Q281-42 298-42L319-42Q405-42 405-121L405-135Q405-182 385.50-203Q366-224 318-224L241-224L180-210L191-158Z"  horiz-adv-x="505" vert-adv-y="1000"  />

      
      <glyph glyph-name="unic8" unicode="&#xc8;" d="M81 700L430 700L430 635L151 635L151 399L380 399L380 334L151 334L151 64L450 64L450 0L81 0L81 700M304 799L288 761L109 806Q106 816 106 825Q106 854 132 875L304 799Z"  horiz-adv-x="486" vert-adv-y="1000"  />

      
      <glyph glyph-name="unic9" unicode="&#xc9;" d="M81 700L430 700L430 635L151 635L151 399L380 399L380 334L151 334L151 64L450 64L450 0L81 0L81 700M381 875Q407 854 407 825Q407 816 404 806L225 761L209 799L381 875Z"  horiz-adv-x="486" vert-adv-y="1000"  />

      
      <glyph glyph-name="unica" unicode="&#xca;" d="M81 700L430 700L430 635L151 635L151 399L380 399L380 334L151 334L151 64L450 64L450 0L81 0L81 700M286 896L397 774L367 750L258 835L254 835L145 750L115 774L227 896Q254 904 286 896Z"  horiz-adv-x="486" vert-adv-y="1000"  />

      
      <glyph glyph-name="unicb" unicode="&#xcb;" d="M81 700L430 700L430 635L151 635L151 399L380 399L380 334L151 334L151 64L450 64L450 0L81 0L81 700M182 792L165 792Q149 792 138.50 802.50Q128 813 128 829L128 846Q128 863 138.50 873Q149 883 165 883L182 883Q199 883 209 873Q219 863 219 846L219 829Q219 813 209 802.50Q199 792 182 792M347 792L330 792Q313 792 303 802.50Q293 813 293 829L293 846Q293 863 303 873Q313 883 330 883L347 883Q363 883 373.50 873Q384 863 384 846L384 829Q384 813 373.50 802.50Q363 792 347 792Z"  horiz-adv-x="486" vert-adv-y="1000"  />

      
      <glyph glyph-name="unicc" unicode="&#xcc;" d="M151 0L81 0L81 700L151 700L151 0M165 799L149 761L-30 806Q-33 816-33 825Q-33 854-7 875L165 799Z"  horiz-adv-x="232" vert-adv-y="1000"  />

      
      <glyph glyph-name="unicd" unicode="&#xcd;" d="M151 0L81 0L81 700L151 700L151 0M241 875Q267 854 267 825Q267 816 264 806L85 761L69 799L241 875Z"  horiz-adv-x="232" vert-adv-y="1000"  />

      
      <glyph glyph-name="unice" unicode="&#xce;" d="M151 0L81 0L81 700L151 700L151 0M147 896L258 774L228 750L119 835L115 835L6 750L-24 774L88 896Q115 904 147 896Z"  horiz-adv-x="232" vert-adv-y="1000"  />

      
      <glyph glyph-name="unicf" unicode="&#xcf;" d="M151 0L81 0L81 700L151 700L151 0M43 792L26 792Q10 792-0.50 802.50Q-11 813-11 829L-11 846Q-11 863-0.50 873Q10 883 26 883L43 883Q60 883 70 873Q80 863 80 846L80 829Q80 813 70 802.50Q60 792 43 792M208 792L191 792Q174 792 164 802.50Q154 813 154 829L154 846Q154 863 164 873Q174 883 191 883L208 883Q224 883 234.50 873Q245 863 245 846L245 829Q245 813 234.50 802.50Q224 792 208 792Z"  horiz-adv-x="232" vert-adv-y="1000"  />

      
      <glyph glyph-name="unid0" unicode="&#xd0;" d="M81 700L376 700Q435 700 465.50 668.50Q496 637 496 580L496 120Q496 62 465.50 31Q435 0 376 0L81 0L81 326L21 326L21 390L81 390L81 700M299 390L299 326L151 326L151 64L374 64Q426 64 426 118L426 581Q426 635 374 635L151 635L151 390L299 390Z"  horiz-adv-x="567" vert-adv-y="1000"  />

      
      <glyph glyph-name="unid1" unicode="&#xd1;" d="M429 0L185 488L143 588L139 588L151 401L151 0L81 0L81 700L151 700L394 211L436 111L440 111L429 298L429 700L499 700L499 0L429 0M361 773L342 773Q318 773 295 789L253 820Q243 828 228 828L219 828Q205 828 199.50 824.50Q194 821 194 809L194 798L184 765L138 787L144 812L144 828Q144 861 161 873.50Q178 886 212 886L234 886Q257 886 278 872Q282 869 290.50 862.50Q299 856 302.50 853.50Q306 851 312.50 846.50Q319 842 322 840Q325 838 329.50 835.50Q334 833 337.50 832Q341 831 344 831L354 831Q368 831 373.50 834.50Q379 838 379 850L379 861L389 894L438 880L429 847L429 831Q429 798 412 785.50Q395 773 361 773Z"  horiz-adv-x="580" vert-adv-y="1000"  />

      
      <glyph glyph-name="unid2" unicode="&#xd2;" d="M367 635L193 635Q141 635 141 581L141 118Q141 64 193 64L367 64Q419 64 419 118L419 581Q419 635 367 635M369 0L191 0Q132 0 101.50 31Q71 62 71 120L71 580Q71 637 101.50 668.50Q132 700 191 700L369 700Q427 700 458 668.50Q489 637 489 580L489 120Q489 63 458 31.50Q427 0 369 0M328 799L312 761L133 806Q130 816 130 825Q130 854 156 875L328 799Z"  horiz-adv-x="560" vert-adv-y="1000"  />

      
      <glyph glyph-name="unid3" unicode="&#xd3;" d="M367 635L193 635Q141 635 141 581L141 118Q141 64 193 64L367 64Q419 64 419 118L419 581Q419 635 367 635M369 0L191 0Q132 0 101.50 31Q71 62 71 120L71 580Q71 637 101.50 668.50Q132 700 191 700L369 700Q427 700 458 668.50Q489 637 489 580L489 120Q489 63 458 31.50Q427 0 369 0M405 875Q431 854 431 825Q431 816 428 806L249 761L233 799L405 875Z"  horiz-adv-x="560" vert-adv-y="1000"  />

      
      <glyph glyph-name="unid4" unicode="&#xd4;" d="M367 635L193 635Q141 635 141 581L141 118Q141 64 193 64L367 64Q419 64 419 118L419 581Q419 635 367 635M369 0L191 0Q132 0 101.50 31Q71 62 71 120L71 580Q71 637 101.50 668.50Q132 700 191 700L369 700Q427 700 458 668.50Q489 637 489 580L489 120Q489 63 458 31.50Q427 0 369 0M310 896L421 774L391 750L282 835L278 835L169 750L139 774L251 896Q278 904 310 896Z"  horiz-adv-x="560" vert-adv-y="1000"  />

      
      <glyph glyph-name="unid5" unicode="&#xd5;" d="M367 635L193 635Q141 635 141 581L141 118Q141 64 193 64L367 64Q419 64 419 118L419 581Q419 635 367 635M369 0L191 0Q132 0 101.50 31Q71 62 71 120L71 580Q71 637 101.50 668.50Q132 700 191 700L369 700Q427 700 458 668.50Q489 637 489 580L489 120Q489 63 458 31.50Q427 0 369 0M350 773L331 773Q307 773 284 789L242 820Q232 828 217 828L208 828Q194 828 188.50 824.50Q183 821 183 809L183 798L173 765L127 787L133 812L133 828Q133 861 150 873.50Q167 886 201 886L223 886Q246 886 267 872Q271 869 279.50 862.50Q288 856 291.50 853.50Q295 851 301.50 846.50Q308 842 311 840Q314 838 318.50 835.50Q323 833 326.50 832Q330 831 333 831L343 831Q357 831 362.50 834.50Q368 838 368 850L368 861L378 894L427 880L418 847L418 831Q418 798 401 785.50Q384 773 350 773Z"  horiz-adv-x="560" vert-adv-y="1000"  />

      
      <glyph glyph-name="unid6" unicode="&#xd6;" d="M367 635L193 635Q141 635 141 581L141 118Q141 64 193 64L367 64Q419 64 419 118L419 581Q419 635 367 635M369 0L191 0Q132 0 101.50 31Q71 62 71 120L71 580Q71 637 101.50 668.50Q132 700 191 700L369 700Q427 700 458 668.50Q489 637 489 580L489 120Q489 63 458 31.50Q427 0 369 0M206 792L189 792Q173 792 162.50 802.50Q152 813 152 829L152 846Q152 863 162.50 873Q173 883 189 883L206 883Q223 883 233 873Q243 863 243 846L243 829Q243 813 233 802.50Q223 792 206 792M371 792L354 792Q337 792 327 802.50Q317 813 317 829L317 846Q317 863 327 873Q337 883 354 883L371 883Q387 883 397.50 873Q408 863 408 846L408 829Q408 813 397.50 802.50Q387 792 371 792Z"  horiz-adv-x="560" vert-adv-y="1000"  />

      
      <glyph glyph-name="unid7" unicode="&#xd7;" d="M230 231L101 102L61 141L191 271L61 401L101 440L230 310L361 440L400 401L270 271L400 140L361 101L230 231Z"  horiz-adv-x="461" vert-adv-y="1000"  />

      
      <glyph glyph-name="unid8" unicode="&#xd8;" d="M490 720L463 662Q489 631 489 580L489 120Q489 63 458 31.50Q427 0 369 0L191 0Q162 0 142 7L102-78L57-54L99 33Q71 64 71 120L71 580Q71 637 101.50 668.50Q132 700 191 700L369 700Q397 700 421 692L445 743L490 720M367 635L193 635Q141 635 141 581L141 118Q141 107 142 102L383 633Q373 635 367 635M419 581L419 589L179 65Q183 64 193 64L367 64Q419 64 419 118L419 581Z"  horiz-adv-x="560" vert-adv-y="1000"  />

      
      <glyph glyph-name="unid9" unicode="&#xd9;" d="M432 700L502 700L502 120Q502 62 471.50 31Q441 0 382 0L201 0Q142 0 111.50 31Q81 62 81 120L81 700L151 700L151 118Q151 64 203 64L380 64Q432 64 432 118L432 700M339 799L323 761L144 806Q141 816 141 825Q141 854 167 875L339 799Z"  horiz-adv-x="583" vert-adv-y="1000"  />

      
      <glyph glyph-name="unida" unicode="&#xda;" d="M432 700L502 700L502 120Q502 62 471.50 31Q441 0 382 0L201 0Q142 0 111.50 31Q81 62 81 120L81 700L151 700L151 118Q151 64 203 64L380 64Q432 64 432 118L432 700M416 875Q442 854 442 825Q442 816 439 806L260 761L244 799L416 875Z"  horiz-adv-x="583" vert-adv-y="1000"  />

      
      <glyph glyph-name="unidb" unicode="&#xdb;" d="M432 700L502 700L502 120Q502 62 471.50 31Q441 0 382 0L201 0Q142 0 111.50 31Q81 62 81 120L81 700L151 700L151 118Q151 64 203 64L380 64Q432 64 432 118L432 700M321 896L432 774L402 750L293 835L289 835L180 750L150 774L262 896Q289 904 321 896Z"  horiz-adv-x="583" vert-adv-y="1000"  />

      
      <glyph glyph-name="unidc" unicode="&#xdc;" d="M432 700L502 700L502 120Q502 62 471.50 31Q441 0 382 0L201 0Q142 0 111.50 31Q81 62 81 120L81 700L151 700L151 118Q151 64 203 64L380 64Q432 64 432 118L432 700M217 792L200 792Q184 792 173.50 802.50Q163 813 163 829L163 846Q163 863 173.50 873Q184 883 200 883L217 883Q234 883 244 873Q254 863 254 846L254 829Q254 813 244 802.50Q234 792 217 792M382 792L365 792Q348 792 338 802.50Q328 813 328 829L328 846Q328 863 338 873Q348 883 365 883L382 883Q398 883 408.50 873Q419 863 419 846L419 829Q419 813 408.50 802.50Q398 792 382 792Z"  horiz-adv-x="583" vert-adv-y="1000"  />

      
      <glyph glyph-name="unidd" unicode="&#xdd;" d="M436 619L283 288L283 0L213 0L213 288L23 700L94 700L247 355L251 355L372 631L392 707L463 698L436 619M373 875Q399 854 399 825Q399 816 396 806L217 761L201 799L373 875Z"  horiz-adv-x="497" vert-adv-y="1000"  />

      
      <glyph glyph-name="unide" unicode="&#xde;" d="M81 700L151 700L151 610L359 610Q417 610 448 578.50Q479 547 479 490L479 305Q479 248 448 216.50Q417 185 359 185L151 185L151 0L81 0L81 700M151 545L151 249L357 249Q409 249 409 303L409 491Q409 545 357 545L151 545Z"  horiz-adv-x="520" vert-adv-y="1000"  />

      
      <glyph glyph-name="unidf" unicode="&#xdf;" d="M136 581L136-145L66-145L66 580Q66 637 96.50 668.50Q127 700 186 700L274 700Q332 700 363 668.50Q394 637 394 580L394 468Q394 394 344 377L335 377L335 373L345 373Q415 353 415 274L415 120Q415 62 384.50 31Q354 0 295 0L186 0L186 64L293 64Q345 64 345 118L345 283Q345 337 288 337L186 337L186 402L267 402Q324 402 324 456L324 581Q324 635 272 635L188 635Q136 635 136 581Z"  horiz-adv-x="454" vert-adv-y="1000"  />

      
      <glyph glyph-name="unie0" unicode="&#xe0;" d="M65 472L165 500L279 500Q338 500 368.50 468.50Q399 437 399 380L399 79L410 0L341-8L330 81L218 0L169 0Q111 0 80 31.50Q49 63 49 120L49 181Q49 238 80 269.50Q111 301 169 301L329 301L329 381Q329 435 277 435L165 435L83 411L65 472M171 64L200 64L329 158L329 239L171 239Q119 239 119 185L119 118Q119 64 171 64M138 714L267 577L236 551L89 662Q95 700 138 714Z"  horiz-adv-x="470" vert-adv-y="1000"  />

      
      <glyph glyph-name="unie1" unicode="&#xe1;" d="M65 472L165 500L279 500Q338 500 368.50 468.50Q399 437 399 380L399 79L410 0L341-8L330 81L218 0L169 0Q111 0 80 31.50Q49 63 49 120L49 181Q49 238 80 269.50Q111 301 169 301L329 301L329 381Q329 435 277 435L165 435L83 411L65 472M171 64L200 64L329 158L329 239L171 239Q119 239 119 185L119 118Q119 64 171 64M196 577L325 714Q366 699 371 660L224 549L196 577Z"  horiz-adv-x="470" vert-adv-y="1000"  />

      
      <glyph glyph-name="unie2" unicode="&#xe2;" d="M65 472L165 500L279 500Q338 500 368.50 468.50Q399 437 399 380L399 79L410 0L341-8L330 81L218 0L169 0Q111 0 80 31.50Q49 63 49 120L49 181Q49 238 80 269.50Q111 301 169 301L329 301L329 381Q329 435 277 435L165 435L83 411L65 472M171 64L200 64L329 158L329 239L171 239Q119 239 119 185L119 118Q119 64 171 64M266 716L377 594L347 570L238 655L234 655L125 570L95 594L207 716Q234 724 266 716Z"  horiz-adv-x="470" vert-adv-y="1000"  />

      
      <glyph glyph-name="unie3" unicode="&#xe3;" d="M65 472L165 500L279 500Q338 500 368.50 468.50Q399 437 399 380L399 79L410 0L341-8L330 81L218 0L169 0Q111 0 80 31.50Q49 63 49 120L49 181Q49 238 80 269.50Q111 301 169 301L329 301L329 381Q329 435 277 435L165 435L83 411L65 472M171 64L200 64L329 158L329 239L171 239Q119 239 119 185L119 118Q119 64 171 64M307 593L288 593Q264 593 241 609L199 640Q189 648 174 648L165 648Q151 648 145.50 644.50Q140 641 140 629L140 618L130 585L84 607L90 632L90 648Q90 681 107 693.50Q124 706 158 706L180 706Q203 706 224 692Q228 689 236.50 682.50Q245 676 248.50 673.50Q252 671 258.50 666.50Q265 662 268 660Q271 658 275.50 655.50Q280 653 283.50 652Q287 651 290 651L300 651Q314 651 319.50 654.50Q325 658 325 670L325 681L335 714L384 700L375 667L375 651Q375 618 358 605.50Q341 593 307 593Z"  horiz-adv-x="470" vert-adv-y="1000"  />

      
      <glyph glyph-name="unie4" unicode="&#xe4;" d="M65 472L165 500L279 500Q338 500 368.50 468.50Q399 437 399 380L399 79L410 0L341-8L330 81L218 0L169 0Q111 0 80 31.50Q49 63 49 120L49 181Q49 238 80 269.50Q111 301 169 301L329 301L329 381Q329 435 277 435L165 435L83 411L65 472M171 64L200 64L329 158L329 239L171 239Q119 239 119 185L119 118Q119 64 171 64M162 612L145 612Q129 612 118.50 622.50Q108 633 108 649L108 666Q108 683 118.50 693Q129 703 145 703L162 703Q179 703 189 693Q199 683 199 666L199 649Q199 633 189 622.50Q179 612 162 612M327 612L310 612Q293 612 283 622.50Q273 633 273 649L273 666Q273 683 283 693Q293 703 310 703L327 703Q343 703 353.50 693Q364 683 364 666L364 649Q364 633 353.50 622.50Q343 612 327 612Z"  horiz-adv-x="470" vert-adv-y="1000"  />

      
      <glyph glyph-name="unie5" unicode="&#xe5;" d="M65 472L165 500L279 500Q338 500 368.50 468.50Q399 437 399 380L399 79L410 0L341-8L330 81L218 0L169 0Q111 0 80 31.50Q49 63 49 120L49 181Q49 238 80 269.50Q111 301 169 301L329 301L329 381Q329 435 277 435L165 435L83 411L65 472M171 64L200 64L329 158L329 239L171 239Q119 239 119 185L119 118Q119 64 171 64M225 615L247 615Q288 615 288 655L288 661Q288 681 279 690.50Q270 700 247 700L225 700Q202 700 193 690.50Q184 681 184 661L184 655Q184 615 225 615M258 574L214 574Q177 574 156 595.50Q135 617 135 653L135 664Q135 701 156 722Q177 743 214 743L258 743Q295 743 316 722Q337 701 337 664L337 653Q337 617 315.50 595.50Q294 574 258 574Z"  horiz-adv-x="470" vert-adv-y="1000"  />

      
      <glyph glyph-name="unie6" unicode="&#xe6;" d="M65 472L165 500L279 500Q340 500 362 462L366 462Q384 500 449 500L545 500Q603 500 634 468.50Q665 437 665 380L665 276L609 227L399 227L399 118Q399 64 451 64L556 64L638 88L655 27L557 0L449 0Q352 0 333 82L218 0L169 0Q111 0 80 31.50Q49 63 49 120L49 181Q49 301 187 301L329 301L329 381Q329 435 277 435L165 435L83 411L65 472M171 64L200 64L329 158L329 239L181 239Q149 239 134 227.50Q119 216 119 185L119 118Q119 64 171 64M399 384L399 291L581 291L595 302L595 381Q595 412 580 423.50Q565 435 533 435L461 435Q429 435 414 424Q399 413 399 384Z"  horiz-adv-x="708" vert-adv-y="1000"  />

      
      <glyph glyph-name="unie7" unicode="&#xe7;" d="M156-158L206-170L291-170Q313-170 313-145L313-121Q313-95 291-95L262-95Q234-95 219-108L168-96L200 0L181 0Q122 0 91.50 31Q61 62 61 120L61 380Q61 437 91.50 468.50Q122 500 181 500L291 500L390 472L373 411L291 435L183 435Q131 435 131 381L131 118Q131 64 183 64L296 64L378 88L395 27L296 0L257 0L249-23L226-50L229-53Q246-42 263-42L284-42Q370-42 370-121L370-135Q370-182 350.50-203Q331-224 283-224L206-224L145-210L156-158Z"  horiz-adv-x="415" vert-adv-y="1000"  />

      
      <glyph glyph-name="unie8" unicode="&#xe8;" d="M181 0Q122 0 91.50 31Q61 62 61 120L61 380Q61 437 91.50 468.50Q122 500 181 500L276 500Q335 500 365.50 468.50Q396 437 396 380L396 276L341 227L131 227L131 118Q131 64 183 64L288 64L369 88L387 27L288 0L181 0M131 381L131 291L312 291L326 302L326 381Q326 435 274 435L183 435Q131 435 131 381M128 714L257 577L226 551L79 662Q85 700 128 714Z"  horiz-adv-x="439" vert-adv-y="1000"  />

      
      <glyph glyph-name="unie9" unicode="&#xe9;" d="M181 0Q122 0 91.50 31Q61 62 61 120L61 380Q61 437 91.50 468.50Q122 500 181 500L276 500Q335 500 365.50 468.50Q396 437 396 380L396 276L341 227L131 227L131 118Q131 64 183 64L288 64L369 88L387 27L288 0L181 0M131 381L131 291L312 291L326 302L326 381Q326 435 274 435L183 435Q131 435 131 381M186 577L315 714Q356 699 361 660L214 549L186 577Z"  horiz-adv-x="439" vert-adv-y="1000"  />

      
      <glyph glyph-name="uniea" unicode="&#xea;" d="M181 0Q122 0 91.50 31Q61 62 61 120L61 380Q61 437 91.50 468.50Q122 500 181 500L276 500Q335 500 365.50 468.50Q396 437 396 380L396 276L341 227L131 227L131 118Q131 64 183 64L288 64L369 88L387 27L288 0L181 0M131 381L131 291L312 291L326 302L326 381Q326 435 274 435L183 435Q131 435 131 381M256 716L367 594L337 570L228 655L224 655L115 570L85 594L197 716Q224 724 256 716Z"  horiz-adv-x="439" vert-adv-y="1000"  />

      
      <glyph glyph-name="unieb" unicode="&#xeb;" d="M181 0Q122 0 91.50 31Q61 62 61 120L61 380Q61 437 91.50 468.50Q122 500 181 500L276 500Q335 500 365.50 468.50Q396 437 396 380L396 276L341 227L131 227L131 118Q131 64 183 64L288 64L369 88L387 27L288 0L181 0M131 381L131 291L312 291L326 302L326 381Q326 435 274 435L183 435Q131 435 131 381M152 612L135 612Q119 612 108.50 622.50Q98 633 98 649L98 666Q98 683 108.50 693Q119 703 135 703L152 703Q169 703 179 693Q189 683 189 666L189 649Q189 633 179 622.50Q169 612 152 612M317 612L300 612Q283 612 273 622.50Q263 633 263 649L263 666Q263 683 273 693Q283 703 300 703L317 703Q333 703 343.50 693Q354 683 354 666L354 649Q354 633 343.50 622.50Q333 612 317 612Z"  horiz-adv-x="439" vert-adv-y="1000"  />

      
      <glyph glyph-name="uniec" unicode="&#xec;" d="M9 714L138 577L107 551L-40 662Q-34 700 9 714M71 0L71 420L60 500L129 509L141 419L141 0L71 0Z"  horiz-adv-x="212" vert-adv-y="1000"  />

      
      <glyph glyph-name="unied" unicode="&#xed;" d="M66 577L195 714Q236 699 241 660L94 549L66 577M71 0L71 420L60 500L129 509L141 419L141 0L71 0Z"  horiz-adv-x="212" vert-adv-y="1000"  />

      
      <glyph glyph-name="uniee" unicode="&#xee;" d="M137 716L248 594L218 570L109 655L105 655L-4 570L-34 594L78 716Q105 724 137 716M71 0L71 420L60 500L129 509L141 419L141 0L71 0Z"  horiz-adv-x="212" vert-adv-y="1000"  />

      
      <glyph glyph-name="unief" unicode="&#xef;" d="M33 612L16 612Q0 612-10.50 622.50Q-21 633-21 649L-21 666Q-21 683-10.50 693Q0 703 16 703L33 703Q50 703 60 693Q70 683 70 666L70 649Q70 633 60 622.50Q50 612 33 612M198 612L181 612Q164 612 154 622.50Q144 633 144 649L144 666Q144 683 154 693Q164 703 181 703L198 703Q214 703 224.50 693Q235 683 235 666L235 649Q235 633 224.50 622.50Q214 612 198 612M71 0L71 420L60 500L129 509L141 419L141 0L71 0Z"  horiz-adv-x="212" vert-adv-y="1000"  />

      
      <glyph glyph-name="unif0" unicode="&#xf0;" d="M79 719L112 770L203 714L249 782L297 752L252 684L295 658Q359 619 387 573.50Q415 528 415 434L415 143Q415 72 388 36Q361 0 295 0L185 0Q119 0 92 36Q65 72 65 143L65 380Q65 437 95.50 468.50Q126 500 185 500L278 500Q324 500 349 471L352 472Q349 522 328 550Q307 578 265 603L218 632L171 561L122 592L169 662L79 719M278 435L187 435Q158 435 146.50 419.50Q135 404 135 366L135 118Q135 86 150 75Q165 64 200 64L293 64Q345 64 345 118L345 375Q345 407 329.50 421Q314 435 278 435Z"  horiz-adv-x="475" vert-adv-y="1000"  />

      
      <glyph glyph-name="unif1" unicode="&#xf1;" d="M421 76L431 0L362-8L351 80L351 381Q351 435 299 435L267 435L141 365L141 0L71 0L71 417L61 498L129 507L138 436L251 500L301 500Q359 500 390 468.50Q421 437 421 380L421 76M316 593L297 593Q273 593 250 609L208 640Q198 648 183 648L174 648Q160 648 154.50 644.50Q149 641 149 629L149 618L139 585L93 607L99 632L99 648Q99 681 116 693.50Q133 706 167 706L189 706Q212 706 233 692Q237 689 245.50 682.50Q254 676 257.50 673.50Q261 671 267.50 666.50Q274 662 277 660Q280 658 284.50 655.50Q289 653 292.50 652Q296 651 299 651L309 651Q323 651 328.50 654.50Q334 658 334 670L334 681L344 714L393 700L384 667L384 651Q384 618 367 605.50Q350 593 316 593Z"  horiz-adv-x="492" vert-adv-y="1000"  />

      
      <glyph glyph-name="unif2" unicode="&#xf2;" d="M289 435L183 435Q131 435 131 381L131 118Q131 64 183 64L289 64Q341 64 341 118L341 381Q341 435 289 435M291 0L181 0Q122 0 91.50 31Q61 62 61 120L61 380Q61 437 91.50 468.50Q122 500 181 500L291 500Q350 500 380.50 468.50Q411 437 411 380L411 120Q411 62 380.50 31Q350 0 291 0M138 714L267 577L236 551L89 662Q95 700 138 714Z"  horiz-adv-x="472" vert-adv-y="1000"  />

      
      <glyph glyph-name="unif3" unicode="&#xf3;" d="M289 435L183 435Q131 435 131 381L131 118Q131 64 183 64L289 64Q341 64 341 118L341 381Q341 435 289 435M291 0L181 0Q122 0 91.50 31Q61 62 61 120L61 380Q61 437 91.50 468.50Q122 500 181 500L291 500Q350 500 380.50 468.50Q411 437 411 380L411 120Q411 62 380.50 31Q350 0 291 0M196 577L325 714Q366 699 371 660L224 549L196 577Z"  horiz-adv-x="472" vert-adv-y="1000"  />

      
      <glyph glyph-name="unif4" unicode="&#xf4;" d="M289 435L183 435Q131 435 131 381L131 118Q131 64 183 64L289 64Q341 64 341 118L341 381Q341 435 289 435M291 0L181 0Q122 0 91.50 31Q61 62 61 120L61 380Q61 437 91.50 468.50Q122 500 181 500L291 500Q350 500 380.50 468.50Q411 437 411 380L411 120Q411 62 380.50 31Q350 0 291 0M266 716L377 594L347 570L238 655L234 655L125 570L95 594L207 716Q234 724 266 716Z"  horiz-adv-x="472" vert-adv-y="1000"  />

      
      <glyph glyph-name="unif5" unicode="&#xf5;" d="M289 435L183 435Q131 435 131 381L131 118Q131 64 183 64L289 64Q341 64 341 118L341 381Q341 435 289 435M291 0L181 0Q122 0 91.50 31Q61 62 61 120L61 380Q61 437 91.50 468.50Q122 500 181 500L291 500Q350 500 380.50 468.50Q411 437 411 380L411 120Q411 62 380.50 31Q350 0 291 0M307 593L288 593Q264 593 241 609L199 640Q189 648 174 648L165 648Q151 648 145.50 644.50Q140 641 140 629L140 618L130 585L84 607L90 632L90 648Q90 681 107 693.50Q124 706 158 706L180 706Q203 706 224 692Q228 689 236.50 682.50Q245 676 248.50 673.50Q252 671 258.50 666.50Q265 662 268 660Q271 658 275.50 655.50Q280 653 283.50 652Q287 651 290 651L300 651Q314 651 319.50 654.50Q325 658 325 670L325 681L335 714L384 700L375 667L375 651Q375 618 358 605.50Q341 593 307 593Z"  horiz-adv-x="472" vert-adv-y="1000"  />

      
      <glyph glyph-name="unif6" unicode="&#xf6;" d="M289 435L183 435Q131 435 131 381L131 118Q131 64 183 64L289 64Q341 64 341 118L341 381Q341 435 289 435M291 0L181 0Q122 0 91.50 31Q61 62 61 120L61 380Q61 437 91.50 468.50Q122 500 181 500L291 500Q350 500 380.50 468.50Q411 437 411 380L411 120Q411 62 380.50 31Q350 0 291 0M162 612L145 612Q129 612 118.50 622.50Q108 633 108 649L108 666Q108 683 118.50 693Q129 703 145 703L162 703Q179 703 189 693Q199 683 199 666L199 649Q199 633 189 622.50Q179 612 162 612M327 612L310 612Q293 612 283 622.50Q273 633 273 649L273 666Q273 683 283 693Q293 703 310 703L327 703Q343 703 353.50 693Q364 683 364 666L364 649Q364 633 353.50 622.50Q343 612 327 612Z"  horiz-adv-x="472" vert-adv-y="1000"  />

      
      <glyph glyph-name="unif7" unicode="&#xf7;" d="M385 242L76 242L76 303L385 303L385 242M240 78L222 78Q206 78 195 89Q184 100 184 116L184 134Q184 151 194.50 161.50Q205 172 222 172L240 172Q257 172 267.50 161.50Q278 151 278 134L278 116Q278 99 267.50 88.50Q257 78 240 78M240 385L222 385Q205 385 194.50 395.50Q184 406 184 423L184 441Q184 458 195 468.50Q206 479 222 479L240 479Q257 479 267.50 468.50Q278 458 278 441L278 423Q278 406 267.50 395.50Q257 385 240 385Z"  horiz-adv-x="461" vert-adv-y="1000"  />

      
      <glyph glyph-name="unif8" unicode="&#xf8;" d="M407 528L379 469Q411 437 411 380L411 120Q411 62 380.50 31Q350 0 291 0L181 0Q157 0 142 4L112-61L67-37L97 26Q61 56 61 120L61 380Q61 437 91.50 468.50Q122 500 181 500L291 500Q316 500 335 494L362 551L407 528M289 435L183 435Q131 435 131 381L131 118Q131 100 136 87L297 435L289 435M341 381Q341 394 338 403L179 64L183 64L289 64Q341 64 341 118L341 381Z"  horiz-adv-x="472" vert-adv-y="1000"  />

      
      <glyph glyph-name="unif9" unicode="&#xf9;" d="M71 419L61 498L129 507L141 415L141 118Q141 64 193 64L222 64L351 148L351 500L421 500L421 79L431 0L363-8L352 71L240 0L191 0Q132 0 101.50 31Q71 62 71 120L71 419M148 714L277 577L246 551L99 662Q105 700 148 714Z"  horiz-adv-x="492" vert-adv-y="1000"  />

      
      <glyph glyph-name="unifa" unicode="&#xfa;" d="M71 419L61 498L129 507L141 415L141 118Q141 64 193 64L222 64L351 148L351 500L421 500L421 79L431 0L363-8L352 71L240 0L191 0Q132 0 101.50 31Q71 62 71 120L71 419M206 577L335 714Q376 699 381 660L234 549L206 577Z"  horiz-adv-x="492" vert-adv-y="1000"  />

      
      <glyph glyph-name="unifb" unicode="&#xfb;" d="M71 419L61 498L129 507L141 415L141 118Q141 64 193 64L222 64L351 148L351 500L421 500L421 79L431 0L363-8L352 71L240 0L191 0Q132 0 101.50 31Q71 62 71 120L71 419M276 716L387 594L357 570L248 655L244 655L135 570L105 594L217 716Q244 724 276 716Z"  horiz-adv-x="492" vert-adv-y="1000"  />

      
      <glyph glyph-name="unifc" unicode="&#xfc;" d="M71 419L61 498L129 507L141 415L141 118Q141 64 193 64L222 64L351 148L351 500L421 500L421 79L431 0L363-8L352 71L240 0L191 0Q132 0 101.50 31Q71 62 71 120L71 419M172 612L155 612Q139 612 128.50 622.50Q118 633 118 649L118 666Q118 683 128.50 693Q139 703 155 703L172 703Q189 703 199 693Q209 683 209 666L209 649Q209 633 199 622.50Q189 612 172 612M337 612L320 612Q303 612 293 622.50Q283 633 283 649L283 666Q283 683 293 693Q303 703 320 703L337 703Q353 703 363.50 693Q374 683 374 666L374 649Q374 633 363.50 622.50Q353 612 337 612Z"  horiz-adv-x="492" vert-adv-y="1000"  />

      
      <glyph glyph-name="unifd" unicode="&#xfd;" d="M351-95L351 70L240 0L191 0Q132 0 101.50 31Q71 62 71 120L71 419L61 498L129 507L141 415L141 118Q141 64 193 64L222 64L351 148L351 500L421 500L421-95Q421-230 283-230L185-230L85-203L103-142L185-166L290-166Q323-166 337-149Q351-132 351-95M206 577L335 714Q376 699 381 660L234 549L206 577Z"  horiz-adv-x="492" vert-adv-y="1000"  />

      
      <glyph glyph-name="unife" unicode="&#xfe;" d="M268 435L142 365L142 86L256 64L300 64Q352 64 352 118L352 381Q352 435 300 435L268 435M142 516L139 436L252 500L302 500Q360 500 391 468.50Q422 437 422 380L422 120Q422 63 391 31.50Q360 0 302 0L254 0L142 22L142-230L72-230L72 660L61 741L130 750L142 659L142 516Z"  horiz-adv-x="483" vert-adv-y="1000"  />

      
      <glyph glyph-name="uniff" unicode="&#xff;" d="M351-95L351 70L240 0L191 0Q132 0 101.50 31Q71 62 71 120L71 419L61 498L129 507L141 415L141 118Q141 64 193 64L222 64L351 148L351 500L421 500L421-95Q421-230 283-230L185-230L85-203L103-142L185-166L290-166Q323-166 337-149Q351-132 351-95M172 612L155 612Q139 612 128.50 622.50Q118 633 118 649L118 666Q118 683 128.50 693Q139 703 155 703L172 703Q189 703 199 693Q209 683 209 666L209 649Q209 633 199 622.50Q189 612 172 612M337 612L320 612Q303 612 293 622.50Q283 633 283 649L283 666Q283 683 293 693Q303 703 320 703L337 703Q353 703 363.50 693Q374 683 374 666L374 649Q374 633 363.50 622.50Q353 612 337 612Z"  horiz-adv-x="492" vert-adv-y="1000"  />

      
      <glyph glyph-name="uni0131" unicode="&#x0131;" d="M71 0L71 420L60 500L129 509L141 419L141 0L71 0Z"  horiz-adv-x="212" vert-adv-y="1000"  />

      
      <glyph glyph-name="uni0152" unicode="&#x0152;" d="M191 700L758 700L758 635L479 635L479 399L708 399L708 334L479 334L479 64L778 64L778 0L191 0Q132 0 101.50 31Q71 62 71 120L71 580Q71 637 101.50 668.50Q132 700 191 700M141 581L141 118Q141 64 193 64L409 64L409 635L193 635Q141 635 141 581Z"  horiz-adv-x="814" vert-adv-y="1000"  />

      
      <glyph glyph-name="uni0153" unicode="&#x0153;" d="M289 435L183 435Q131 435 131 381L131 118Q131 64 183 64L289 64Q341 64 341 118L341 381Q341 435 289 435M411 381L411 291L592 291L606 302L606 381Q606 435 554 435L463 435Q411 435 411 381M291 0L181 0Q122 0 91.50 31Q61 62 61 120L61 380Q61 437 91.50 468.50Q122 500 181 500L291 500Q352 500 374 462L378 462Q396 500 461 500L556 500Q615 500 645.50 468.50Q676 437 676 380L676 276L621 227L411 227L411 118Q411 64 463 64L568 64L649 88L667 27L568 0L461 0Q396 0 378 38L374 38Q352 0 291 0Z"  horiz-adv-x="719" vert-adv-y="1000"  />

      
      <glyph glyph-name="uni02C6" unicode="&#x02C6;" d="M249 917L360 795L330 771L221 856L217 856L108 771L78 795L190 917Q217 925 249 917Z"  horiz-adv-x="441" vert-adv-y="1000"  />

      
      <glyph glyph-name="uni02C7" unicode="&#x02C7;" d="M97 906L127 930L236 845L240 845L349 930L379 906L267 784Q252 779 237.50 779.50Q223 780 208 784L97 906Z"  horiz-adv-x="476" vert-adv-y="1000"  />

      
      <glyph glyph-name="uni02DA" unicode="&#x02DA;" d="M188 816L210 816Q251 816 251 856L251 862Q251 882 242 891.50Q233 901 210 901L188 901Q165 901 156 891.50Q147 882 147 862L147 856Q147 816 188 816M221 775L177 775Q140 775 119 796.50Q98 818 98 854L98 865Q98 902 119 923Q140 944 177 944L221 944Q258 944 279 923Q300 902 300 865L300 854Q300 818 278.50 796.50Q257 775 221 775Z"  horiz-adv-x="398" vert-adv-y="1000"  />

      
      <glyph glyph-name="uni02DC" unicode="&#x02DC;" d="M314 794L295 794Q271 794 248 810L206 841Q196 849 181 849L172 849Q158 849 152.50 845.50Q147 842 147 830L147 819L137 786L91 808L97 833L97 849Q97 882 114 894.50Q131 907 165 907L187 907Q210 907 231 893Q235 890 243.50 883.50Q252 877 255.50 874.50Q259 872 265.50 867.50Q272 863 275 861Q278 859 282.50 856.50Q287 854 290.50 853Q294 852 297 852L307 852Q321 852 326.50 855.50Q332 859 332 871L332 882L342 915L391 901L382 868L382 852Q382 819 365 806.50Q348 794 314 794Z"  horiz-adv-x="484" vert-adv-y="1000"  />

      
      <glyph glyph-name="uni0401" unicode="&#x0401;" d="M81 700L430 700L430 635L151 635L151 399L380 399L380 334L151 334L151 64L450 64L450 0L81 0L81 700M182 794L165 794Q149 794 138.50 804.50Q128 815 128 831L128 848Q128 865 138.50 875Q149 885 165 885L182 885Q199 885 209 875Q219 865 219 848L219 831Q219 815 209 804.50Q199 794 182 794M347 794L330 794Q313 794 303 804.50Q293 815 293 831L293 848Q293 865 303 875Q313 885 330 885L347 885Q363 885 373.50 875Q384 865 384 848L384 831Q384 815 373.50 804.50Q363 794 347 794Z"  horiz-adv-x="486" vert-adv-y="1000"  />

      
      <glyph glyph-name="uni0402" unicode="&#x0402;" d="M21 700L421 700L421 635L256 635L256 438L366 500L416 500Q474 500 505 468.50Q536 437 536 380L536-12Q536-45 533-75Q520-181 393-181L309-157L327-96L393-116L405-116Q438-116 452-99Q466-82 466-45L466 369Q466 406 453 420.50Q440 435 405 435L382 435L256 366L256 0L186 0L186 635L21 635L21 700Z"  horiz-adv-x="602" vert-adv-y="1000"  />

      
      <glyph glyph-name="uni0403" unicode="&#x0403;" d="M81 700L416 700L416 635L151 635L151 0L81 0L81 700M363 877Q389 856 389 827Q389 818 386 808L207 763L191 801L363 877Z"  horiz-adv-x="442" vert-adv-y="1000"  />

      
      <glyph glyph-name="uni0404" unicode="&#x0404;" d="M191 700L358 700L458 672L440 611L358 635L193 635Q141 635 141 581L141 390L370 390L370 326L141 326L141 118Q141 64 193 64L370 64L452 88L469 27L370 0L191 0Q132 0 101.50 31Q71 62 71 120L71 580Q71 637 101.50 668.50Q132 700 191 700Z"  horiz-adv-x="505" vert-adv-y="1000"  />

      
      <glyph glyph-name="uni0405" unicode="&#x0405;" d="M138 0L39 27L56 88L138 64L320 64Q346 64 361.50 79.50Q377 95 377 123L377 178Q377 206 372 217Q367 228 344 244L105 411Q47 452 47 518L47 575Q47 632 80.50 666Q114 700 172 700L330 700L429 672L412 611L330 635L174 635Q148 635 132.50 620Q117 605 117 576L117 526Q117 500 123 488Q129 476 150 461L392 292Q447 254 447 187L447 125Q447 67 414 33.50Q381 0 322 0L138 0Z"  horiz-adv-x="491" vert-adv-y="1000"  />

      
      <glyph glyph-name="uni0406" unicode="&#x0406;" d="M151 0L81 0L81 700L151 700L151 0Z"  horiz-adv-x="232" vert-adv-y="1000"  />

      
      <glyph glyph-name="uni0407" unicode="&#x0407;" d="M151 0L81 0L81 700L151 700L151 0M45 794L28 794Q12 794 1.50 804.50Q-9 815-9 831L-9 848Q-9 865 1.50 875Q12 885 28 885L45 885Q62 885 72 875Q82 865 82 848L82 831Q82 815 72 804.50Q62 794 45 794M210 794L193 794Q176 794 166 804.50Q156 815 156 831L156 848Q156 865 166 875Q176 885 193 885L210 885Q226 885 236.50 875Q247 865 247 848L247 831Q247 815 236.50 804.50Q226 794 210 794Z"  horiz-adv-x="232" vert-adv-y="1000"  />

      
      <glyph glyph-name="uni0408" unicode="&#x0408;" d="M144 0L112 0L21 25L38 86L112 64L151 64Q216 64 216 140L216 700L286 700L286 140Q286 72 249.50 36Q213 0 144 0Z"  horiz-adv-x="367" vert-adv-y="1000"  />

      
      <glyph glyph-name="uni0409" unicode="&#x0409;" d="M716 339L505 339L505 64L716 64Q768 64 768 118L768 283Q768 339 716 339M435 635L217 635L181 118Q178 52 155.50 23.50Q133-5 75-5L41-5L41 59L73 59Q95 59 102.50 70.50Q110 82 115 120L159 700L505 700L505 404L718 404Q776 404 807 371.50Q838 339 838 282L838 120Q838 63 807 31.50Q776 0 718 0L435 0L435 635Z"  horiz-adv-x="884" vert-adv-y="1000"  />

      
      <glyph glyph-name="uni040A" unicode="&#x040A;" d="M705 325L494 325L494 64L705 64Q757 64 757 118L757 269Q757 325 705 325M424 0L424 326L151 326L151 0L81 0L81 700L151 700L151 390L424 390L424 700L494 700L494 390L707 390Q765 390 796 357.50Q827 325 827 268L827 120Q827 63 796 31.50Q765 0 707 0L424 0Z"  horiz-adv-x="873" vert-adv-y="1000"  />

      
      <glyph glyph-name="uni040B" unicode="&#x040B;" d="M496 380L496 75L506 0L437-8L426 80L426 369Q426 406 413 420.50Q400 435 365 435L342 435L216 365L216 0L146 0L146 635L21 635L21 700L381 700L381 635L216 635L216 438L326 500L376 500Q434 500 465 468.50Q496 437 496 380Z"  horiz-adv-x="562" vert-adv-y="1000"  />

      
      <glyph glyph-name="uni040C" unicode="&#x040C;" d="M360 631L393 708L470 698L432 619L264 369L506 0L425 0L204 336L146 336L146 0L76 0L76 700L146 700L146 402L208 402L360 631M363 877Q389 856 389 827Q389 818 386 808L207 763L191 801L363 877Z"  horiz-adv-x="518" vert-adv-y="1000"  />

      
      <glyph glyph-name="uni040E" unicode="&#x040E;" d="M213 751Q181 751 165.50 762.50Q150 774 145 809L139 840L185 854Q189 835 192.50 824.50Q196 814 199.50 808.50Q203 803 208 802Q213 801 220 801L301 801Q308 801 313 802Q318 803 321.50 808.50Q325 814 328.50 824.50Q332 835 336 854L382 840L376 809Q373 790 368 778.50Q363 767 355 761Q347 755 335.50 753Q324 751 308 751L213 751M267 111L285 185L178 185L49 620L37 700L106 708L116 630L229 249L301 249L412 700L483 700L340 125Q322 52 295.50 22.50Q269-7 218-7L194-7L124 9L129 73L195 57L212 57Q254 57 267 111Z"  horiz-adv-x="509" vert-adv-y="1000"  />

      
      <glyph glyph-name="uni040F" unicode="&#x040F;" d="M323-170L253-170L253 0L81 0L81 700L151 700L151 64L424 64L424 700L494 700L494 0L323 0L323-170Z"  horiz-adv-x="575" vert-adv-y="1000"  />

      
      <glyph glyph-name="uni0410" unicode="&#x0410;" d="M386 279L293 635L261 635L167 279L386 279M151 215L95 0L26 0L209 700L344 700L527 0L458 0L401 215L151 215Z"  horiz-adv-x="553" vert-adv-y="1000"  />

      
      <glyph glyph-name="uni0411" unicode="&#x0411;" d="M151 635L151 405L370 405Q428 405 461.50 371Q495 337 495 280L495 125Q495 68 461.50 34Q428 0 370 0L81 0L81 700L471 700L471 635L151 635M368 341L151 341L151 64L368 64Q394 64 409.50 79.50Q425 95 425 123L425 282Q425 310 409.50 325.50Q394 341 368 341Z"  horiz-adv-x="549" vert-adv-y="1000"  />

      
      <glyph glyph-name="uni0412" unicode="&#x0412;" d="M151 64L372 64Q424 64 424 118L424 261Q424 292 407 308.50Q390 325 361 325L151 325L151 64M349 635L151 635L151 389L339 389Q367 389 384 406Q401 423 401 453L401 581Q401 635 349 635M374 0L81 0L81 700L351 700Q409 700 440 668.50Q471 637 471 580L471 466Q471 394 420 369L408 369L408 365L420 365Q494 341 494 253L494 120Q494 62 463.50 31Q433 0 374 0Z"  horiz-adv-x="555" vert-adv-y="1000"  />

      
      <glyph glyph-name="uni0413" unicode="&#x0413;" d="M81 700L416 700L416 635L151 635L151 0L81 0L81 700Z"  horiz-adv-x="442" vert-adv-y="1000"  />

      
      <glyph glyph-name="uni0414" unicode="&#x0414;" d="M11 66L91 66L114 155L169 700L525 700L525 66L600 66L600-49L589-137L520-129L530-54L530 0L81 0L81-54L91-129L22-137L11-49L11 66M167 66L455 66L455 635L228 635L179 124L167 66Z"  horiz-adv-x="628" vert-adv-y="1000"  />

      
      <glyph glyph-name="uni0415" unicode="&#x0415;" d="M81 700L430 700L430 635L151 635L151 399L380 399L380 334L151 334L151 64L450 64L450 0L81 0L81 700Z"  horiz-adv-x="486" vert-adv-y="1000"  />

      
      <glyph glyph-name="uni0416" unicode="&#x0416;" d="M110 708L143 631L295 402L357 402L357 700L427 700L427 402L489 402L641 631L674 708L751 698L713 619L545 369L787 0L706 0L485 336L427 336L427 0L357 0L357 336L299 336L78 0L-3 0L239 369L71 619L33 698L110 708Z"  horiz-adv-x="789" vert-adv-y="1000"  />

      
      <glyph glyph-name="uni0417" unicode="&#x0417;" d="M134 0L35 27L52 88L134 64L302 64Q354 64 354 118L354 261Q354 292 336.50 308.50Q319 325 290 325L131 325L131 389L268 389Q296 389 313 406Q330 423 330 453L330 581Q330 635 278 635L144 635L62 611L45 672L144 700L280 700Q339 700 369.50 668.50Q400 637 400 580L400 466Q400 393 349 369L338 369L338 365L349 365Q424 341 424 253L424 120Q424 63 393 31.50Q362 0 304 0L134 0Z"  horiz-adv-x="485" vert-adv-y="1000"  />

      
      <glyph glyph-name="uni0418" unicode="&#x0418;" d="M185 212L436 700L506 700L506 0L436 0L436 402L447 589L443 589L401 489L151 0L81 0L81 700L151 700L151 299L139 112L143 112L185 212Z"  horiz-adv-x="587" vert-adv-y="1000"  />

      
      <glyph glyph-name="uni0419" unicode="&#x0419;" d="M258 751Q226 751 210.50 762.50Q195 774 190 809L184 840L230 854Q234 835 237.50 824.50Q241 814 244.50 808.50Q248 803 253 802Q258 801 265 801L346 801Q353 801 358 802Q363 803 366.50 808.50Q370 814 373.50 824.50Q377 835 381 854L427 840L421 809Q418 790 413 778.50Q408 767 400 761Q392 755 380.50 753Q369 751 353 751L258 751M185 212L436 700L506 700L506 0L436 0L436 402L447 589L443 589L401 489L151 0L81 0L81 700L151 700L151 299L139 112L143 112L185 212Z"  horiz-adv-x="587" vert-adv-y="1000"  />

      
      <glyph glyph-name="uni041A" unicode="&#x041A;" d="M360 631L393 708L470 698L432 619L264 369L506 0L425 0L204 336L146 336L146 0L76 0L76 700L146 700L146 402L208 402L360 631Z"  horiz-adv-x="518" vert-adv-y="1000"  />

      
      <glyph glyph-name="uni041B" unicode="&#x041B;" d="M115 120L159 700L505 700L505 0L435 0L435 635L217 635L181 118Q178 52 155.50 23.50Q133-5 75-5L41-5L41 59L73 59Q95 59 102.50 70.50Q110 82 115 120Z"  horiz-adv-x="586" vert-adv-y="1000"  />

      
      <glyph glyph-name="uni041C" unicode="&#x041C;" d="M559 588L519 468L381 149L321 149L183 468L143 588L139 588L151 401L151 0L81 0L81 700L151 700L351 232L551 700L621 700L621 0L551 0L551 401L563 588L559 588Z"  horiz-adv-x="696" vert-adv-y="1000"  />

      
      <glyph glyph-name="uni041D" unicode="&#x041D;" d="M499 700L499 0L429 0L429 326L151 326L151 0L81 0L81 700L151 700L151 390L429 390L429 700L499 700Z"  horiz-adv-x="580" vert-adv-y="1000"  />

      
      <glyph glyph-name="uni041E" unicode="&#x041E;" d="M367 635L193 635Q141 635 141 581L141 118Q141 64 193 64L367 64Q419 64 419 118L419 581Q419 635 367 635M369 0L191 0Q132 0 101.50 31Q71 62 71 120L71 580Q71 637 101.50 668.50Q132 700 191 700L369 700Q427 700 458 668.50Q489 637 489 580L489 120Q489 63 458 31.50Q427 0 369 0Z"  horiz-adv-x="560" vert-adv-y="1000"  />

      
      <glyph glyph-name="uni041F" unicode="&#x041F;" d="M494 700L494 0L424 0L424 635L151 635L151 0L81 0L81 700L494 700Z"  horiz-adv-x="575" vert-adv-y="1000"  />

      
      <glyph glyph-name="uni0420" unicode="&#x0420;" d="M81 700L369 700Q427 700 458 668.50Q489 637 489 580L489 395Q489 338 458 306.50Q427 275 369 275L151 275L151 0L81 0L81 700M151 635L151 339L367 339Q419 339 419 393L419 581Q419 635 367 635L151 635Z"  horiz-adv-x="530" vert-adv-y="1000"  />

      
      <glyph glyph-name="uni0421" unicode="&#x0421;" d="M191 700L358 700L458 672L440 611L358 635L193 635Q141 635 141 581L141 118Q141 64 193 64L370 64L452 88L469 27L370 0L191 0Q132 0 101.50 31Q71 62 71 120L71 580Q71 637 101.50 668.50Q132 700 191 700Z"  horiz-adv-x="505" vert-adv-y="1000"  />

      
      <glyph glyph-name="uni0422" unicode="&#x0422;" d="M21 700L421 700L421 635L256 635L256 0L186 0L186 635L21 635L21 700Z"  horiz-adv-x="442" vert-adv-y="1000"  />

      
      <glyph glyph-name="uni0423" unicode="&#x0423;" d="M267 111L285 185L178 185L49 620L37 700L106 708L116 630L229 249L301 249L412 700L483 700L340 125Q322 52 295.50 22.50Q269-7 218-7L194-7L124 9L129 73L195 57L212 57Q254 57 267 111Z"  horiz-adv-x="509" vert-adv-y="1000"  />

      
      <glyph glyph-name="uni0424" unicode="&#x0424;" d="M379 119L379 0L309 0L309 119L171 119Q112 119 81.50 150Q51 181 51 239L51 570Q51 627 81.50 658.50Q112 690 171 690L309 690L309 790L379 790L379 690L517 690Q575 690 606 658.50Q637 627 637 570L637 239Q637 182 606 150.50Q575 119 517 119L379 119M379 625L379 183L515 183Q567 183 567 237L567 571Q567 625 515 625L379 625M309 625L173 625Q121 625 121 571L121 237Q121 183 173 183L309 183L309 625Z"  horiz-adv-x="688" vert-adv-y="1000"  />

      
      <glyph glyph-name="uni0425" unicode="&#x0425;" d="M426 619L304 369L486 0L412 0L255 318L251 318L95 0L21 0L203 369L41 700L116 700L252 421L256 421L362 642L380 707L453 698L426 619Z"  horiz-adv-x="507" vert-adv-y="1000"  />

      
      <glyph glyph-name="uni0426" unicode="&#x0426;" d="M424 700L494 700L494 64L574 64L574-49L563-137L494-129L504-54L504 0L81 0L81 700L151 700L151 64L424 64L424 700Z"  horiz-adv-x="602" vert-adv-y="1000"  />

      
      <glyph glyph-name="uni0427" unicode="&#x0427;" d="M386 700L456 700L456 0L386 0L386 305L314 285L168 285Q110 285 79 316.50Q48 348 48 405L48 700L118 700L118 403Q118 349 170 349L313 349L386 369L386 700Z"  horiz-adv-x="537" vert-adv-y="1000"  />

      
      <glyph glyph-name="uni0428" unicode="&#x0428;" d="M81 700L151 700L151 64L369 64L369 700L439 700L439 64L657 64L657 700L727 700L727 0L81 0L81 700Z"  horiz-adv-x="808" vert-adv-y="1000"  />

      
      <glyph glyph-name="uni0429" unicode="&#x0429;" d="M81 700L151 700L151 64L369 64L369 700L439 700L439 64L657 64L657 700L727 700L727 64L807 64L807-49L796-137L727-129L737-54L737 0L81 0L81 700Z"  horiz-adv-x="835" vert-adv-y="1000"  />

      
      <glyph glyph-name="uni042A" unicode="&#x042A;" d="M231 339L231 64L442 64Q494 64 494 118L494 283Q494 339 442 339L231 339M96 635L16 624L8 690L96 700L231 700L231 404L444 404Q502 404 533 371.50Q564 339 564 282L564 120Q564 63 533 31.50Q502 0 444 0L161 0L161 635L96 635Z"  horiz-adv-x="610" vert-adv-y="1000"  />

      
      <glyph glyph-name="uni042B" unicode="&#x042B;" d="M597 0L597 700L667 700L667 0L597 0M81 0L81 700L151 700L151 404L364 404Q422 404 453 371.50Q484 339 484 282L484 120Q484 63 453 31.50Q422 0 364 0L81 0M151 339L151 64L362 64Q414 64 414 118L414 283Q414 339 362 339L151 339Z"  horiz-adv-x="748" vert-adv-y="1000"  />

      
      <glyph glyph-name="uni042C" unicode="&#x042C;" d="M81 0L81 700L151 700L151 404L364 404Q422 404 453 371.50Q484 339 484 282L484 120Q484 63 453 31.50Q422 0 364 0L81 0M151 339L151 64L362 64Q414 64 414 118L414 283Q414 339 362 339L151 339Z"  horiz-adv-x="530" vert-adv-y="1000"  />

      
      <glyph glyph-name="uni042D" unicode="&#x042D;" d="M147 700L314 700Q373 700 403.50 668.50Q434 637 434 580L434 120Q434 62 403.50 31Q373 0 314 0L135 0L36 27L53 88L135 64L312 64Q364 64 364 118L364 326L135 326L135 390L364 390L364 581Q364 635 312 635L147 635L65 611L47 672L147 700Z"  horiz-adv-x="505" vert-adv-y="1000"  />

      
      <glyph glyph-name="uni042E" unicode="&#x042E;" d="M554 0L391 0Q332 0 301.50 31Q271 62 271 120L271 331L151 331L151 0L81 0L81 700L151 700L151 390L271 390L271 580Q271 637 301.50 668.50Q332 700 391 700L554 700Q612 700 643 668.50Q674 637 674 580L674 120Q674 63 643 31.50Q612 0 554 0M552 635L393 635Q341 635 341 581L341 118Q341 64 393 64L552 64Q604 64 604 118L604 581Q604 635 552 635Z"  horiz-adv-x="745" vert-adv-y="1000"  />

      
      <glyph glyph-name="uni042F" unicode="&#x042F;" d="M183 700L466 700L466 0L396 0L396 305L277 305L132 0L51 0L202 305L183 305Q125 305 94 336.50Q63 368 63 425L63 580Q63 637 94 668.50Q125 700 183 700M396 369L396 635L185 635Q133 635 133 581L133 423Q133 369 185 369L396 369Z"  horiz-adv-x="547" vert-adv-y="1000"  />

      
      <glyph glyph-name="uni0430" unicode="&#x0430;" d="M65 472L165 500L279 500Q338 500 368.50 468.50Q399 437 399 380L399 79L410 0L341-8L330 81L218 0L169 0Q111 0 80 31.50Q49 63 49 120L49 181Q49 238 80 269.50Q111 301 169 301L329 301L329 381Q329 435 277 435L165 435L83 411L65 472M171 64L200 64L329 158L329 239L171 239Q119 239 119 185L119 118Q119 64 171 64Z"  horiz-adv-x="470" vert-adv-y="1000"  />

      
      <glyph glyph-name="uni0431" unicode="&#x0431;" d="M293 435L202 435Q166 435 150.50 421Q135 407 135 375L135 118Q135 64 187 64L280 64Q315 64 330 75Q345 86 345 118L345 366Q345 404 333.50 419.50Q322 435 293 435M310 655L187 655Q160 655 147.50 642.50Q135 630 135 601L135 526L125 474L129 472Q153 500 206 500L295 500Q354 500 384.50 468.50Q415 437 415 380L415 143Q415 72 388 36Q361 0 295 0L185 0Q119 0 92 36Q65 72 65 143L65 576Q65 647 92 683.50Q119 720 185 720L310 720L392 744L409 683L310 655Z"  horiz-adv-x="475" vert-adv-y="1000"  />

      
      <glyph glyph-name="uni0432" unicode="&#x0432;" d="M141 64L298 64Q350 64 350 118L350 169Q350 223 293 223L141 223L141 64M277 435L141 435L141 288L272 288Q329 288 329 342L329 381Q329 435 277 435M300 0L71 0L71 500L279 500Q337 500 368 468.50Q399 437 399 380L399 354Q399 280 349 263L340 263L340 259L350 259Q420 239 420 160L420 120Q420 62 389.50 31Q359 0 300 0Z"  horiz-adv-x="466" vert-adv-y="1000"  />

      
      <glyph glyph-name="uni0433" unicode="&#x0433;" d="M70 500L355 500L355 435L140 435L140 0L70 0L70 500Z"  horiz-adv-x="376" vert-adv-y="1000"  />

      
      <glyph glyph-name="uni0434" unicode="&#x0434;" d="M198 435L168 126L153 64L360 64L360 435L198 435M435 0L86 0L86-54L96-129L27-137L16-49L16 64L80 64L104 155L137 500L430 500L430 64L505 64L505-49L494-137L425-129L435-54L435 0Z"  horiz-adv-x="522" vert-adv-y="1000"  />

      
      <glyph glyph-name="uni0435" unicode="&#x0435;" d="M181 0Q122 0 91.50 31Q61 62 61 120L61 380Q61 437 91.50 468.50Q122 500 181 500L276 500Q335 500 365.50 468.50Q396 437 396 380L396 276L341 227L131 227L131 118Q131 64 183 64L288 64L369 88L387 27L288 0L181 0M131 381L131 291L312 291L326 302L326 381Q326 435 274 435L183 435Q131 435 131 381Z"  horiz-adv-x="439" vert-adv-y="1000"  />

      
      <glyph glyph-name="uni0436" unicode="&#x0436;" d="M283 297L283 500L353 500L353 297L407 297L491 431L534 508L609 498L561 419L460 265L640 0L561 0L404 233L353 233L353 0L283 0L283 233L236 233L79 0L-4 0L176 265L75 419L27 498L102 508L145 431L229 297L283 297Z"  horiz-adv-x="636" vert-adv-y="1000"  />

      
      <glyph glyph-name="uni0437" unicode="&#x0437;" d="M255 0L140 0L41 27L58 88L140 64L253 64Q305 64 305 118L305 171Q305 226 248 226L129 226L129 290L227 290Q284 290 284 344L284 381Q284 435 232 435L145 435L79 416L62 477L145 500L234 500Q292 500 323 468.50Q354 437 354 380L354 356Q354 284 304 265L295 265L295 261L305 261Q375 241 375 163L375 120Q375 62 344.50 31Q314 0 255 0Z"  horiz-adv-x="421" vert-adv-y="1000"  />

      
      <glyph glyph-name="uni0438" unicode="&#x0438;" d="M311 294L141 0L71 0L71 418L61 500L129 509L141 418L141 225L131 95L134 94L190 205L361 500L431 500L431 83L441 1L373-8L361 83L361 275L371 405L367 406L311 294Z"  horiz-adv-x="502" vert-adv-y="1000"  />

      
      <glyph glyph-name="uni0439" unicode="&#x0439;" d="M216 570Q184 570 168.50 581.50Q153 593 148 628L142 669L188 683Q192 660 195.50 647.50Q199 635 202.50 629Q206 623 211 621.50Q216 620 223 620L294 620Q301 620 306 621.50Q311 623 314.50 629Q318 635 321.50 647.50Q325 660 329 683L375 669L369 628Q366 609 361 597.50Q356 586 348 580Q340 574 328.50 572Q317 570 301 570L216 570M311 294L141 0L71 0L71 418L61 500L129 509L141 418L141 225L131 95L134 94L190 205L361 500L431 500L431 83L441 1L373-8L361 83L361 275L371 405L367 406L311 294Z"  horiz-adv-x="502" vert-adv-y="1000"  />

      
      <glyph glyph-name="uni043A" unicode="&#x043A;" d="M66 418L56 500L124 509L136 418L136 297L195 297L279 431L317 508L392 498L349 419L248 265L428 0L349 0L192 233L136 233L136 0L66 0L66 418Z"  horiz-adv-x="434" vert-adv-y="1000"  />

      
      <glyph glyph-name="uni043B" unicode="&#x043B;" d="M418 82L428 0L360-9L348 82L348 435L186 435L165 114Q159 50 132 22Q105-6 42-6L26-6L26 58L42 58Q73 58 84.50 70Q96 82 99 116L125 500L418 500L418 82Z"  horiz-adv-x="489" vert-adv-y="1000"  />

      
      <glyph glyph-name="uni043C" unicode="&#x043C;" d="M453 250L461 384L457 384L405 258L327 100L263 100L186 258L135 384L131 384L139 250L139 0L71 0L71 500L141 500L295 171L451 500L521 500L521 83L531 1L465-8L453 83L453 250Z"  horiz-adv-x="592" vert-adv-y="1000"  />

      
      <glyph glyph-name="uni043D" unicode="&#x043D;" d="M141 291L351 291L351 500L421 500L421 83L431 1L363-8L351 83L351 227L141 227L141 0L71 0L71 418L61 500L129 509L141 418L141 291Z"  horiz-adv-x="492" vert-adv-y="1000"  />

      
      <glyph glyph-name="uni043E" unicode="&#x043E;" d="M289 435L183 435Q131 435 131 381L131 118Q131 64 183 64L289 64Q341 64 341 118L341 381Q341 435 289 435M291 0L181 0Q122 0 91.50 31Q61 62 61 120L61 380Q61 437 91.50 468.50Q122 500 181 500L291 500Q350 500 380.50 468.50Q411 437 411 380L411 120Q411 62 380.50 31Q350 0 291 0Z"  horiz-adv-x="472" vert-adv-y="1000"  />

      
      <glyph glyph-name="uni043F" unicode="&#x043F;" d="M351 435L141 435L141 0L71 0L71 500L421 500L421 83L431 1L363-8L351 83L351 435Z"  horiz-adv-x="492" vert-adv-y="1000"  />

      
      <glyph glyph-name="uni0440" unicode="&#x0440;" d="M71 418L61 498L129 507L138 436L251 500L301 500Q359 500 390 468.50Q421 437 421 380L421 120Q421 63 390 31.50Q359 0 301 0L253 0L141 22L141-230L71-230L71 418M267 435L141 365L141 86L255 64L299 64Q351 64 351 118L351 381Q351 435 299 435L267 435Z"  horiz-adv-x="482" vert-adv-y="1000"  />

      
      <glyph glyph-name="uni0441" unicode="&#x0441;" d="M181 500L291 500L390 472L373 411L291 435L183 435Q131 435 131 381L131 118Q131 64 183 64L296 64L378 88L395 27L296 0L181 0Q122 0 91.50 31Q61 62 61 120L61 380Q61 437 91.50 468.50Q122 500 181 500Z"  horiz-adv-x="415" vert-adv-y="1000"  />

      
      <glyph glyph-name="uni0442" unicode="&#x0442;" d="M21 500L361 500L361 435L231 435L231 0L161 0L161 435L21 435L21 500Z"  horiz-adv-x="382" vert-adv-y="1000"  />

      
      <glyph glyph-name="uni0443" unicode="&#x0443;" d="M351-95L351 70L240 0L191 0Q132 0 101.50 31Q71 62 71 120L71 419L61 498L129 507L141 415L141 118Q141 64 193 64L222 64L351 148L351 500L421 500L421-95Q421-230 283-230L185-230L85-203L103-142L185-166L290-166Q323-166 337-149Q351-132 351-95Z"  horiz-adv-x="492" vert-adv-y="1000"  />

      
      <glyph glyph-name="uni0444" unicode="&#x0444;" d="M485-6L453-3L368 11L368-230L298-230L298 11L181-6Q123-6 92 25.50Q61 57 61 114L61 366Q61 437 90 471.50Q119 506 187 506L298 489L298 555L288 637L356 646L368 555L368 489L485 506Q550 506 577.50 470.50Q605 435 605 366L605 114Q605 56 574.50 25Q544-6 485-6M131 387L131 112Q131 82 145.50 70Q160 58 191 58L298 74L298 426L193 441Q160 441 145.50 429.50Q131 418 131 387M535 112L535 387Q535 418 520.50 429.50Q506 441 474 441L368 426L368 74L475 58Q507 58 521 69.50Q535 81 535 112Z"  horiz-adv-x="667" vert-adv-y="1000"  />

      
      <glyph glyph-name="uni0445" unicode="&#x0445;" d="M216 305L284 431L312 511L387 500L353 420L265 262L413 0L337 0L217 220L213 220L92 0L16 0L164 262L32 500L109 500L212 305L216 305Z"  horiz-adv-x="429" vert-adv-y="1000"  />

      
      <glyph glyph-name="uni0446" unicode="&#x0446;" d="M141 64L351 64L351 500L421 500L421 64L501 64L501-49L490-137L421-129L431-54L431 0L71 0L71 418L61 500L129 509L141 418L141 64Z"  horiz-adv-x="514" vert-adv-y="1000"  />

      
      <glyph glyph-name="uni0447" unicode="&#x0447;" d="M118 320Q118 256 180 256L256 256L328 276L328 500L398 500L398 83L408 1L340-8L328 83L328 211L257 191L178 191Q116 191 82 225.50Q48 260 48 321L48 418L38 500L106 509L118 418L118 320Z"  horiz-adv-x="469" vert-adv-y="1000"  />

      
      <glyph glyph-name="uni0448" unicode="&#x0448;" d="M369 64L527 64L527 500L597 500L597 0L71 0L71 418L61 500L129 509L141 418L141 64L299 64L299 418L289 500L357 509L369 418L369 64Z"  horiz-adv-x="668" vert-adv-y="1000"  />

      
      <glyph glyph-name="uni0449" unicode="&#x0449;" d="M527 500L597 500L597 64L677 64L677-51L666-137L597-129L607-54L607 0L71 0L71 418L61 500L129 509L141 418L141 64L299 64L299 418L289 500L357 509L369 418L369 64L527 64L527 500Z"  horiz-adv-x="690" vert-adv-y="1000"  />

      
      <glyph glyph-name="uni044A" unicode="&#x044A;" d="M354 243L197 243L197 64L354 64Q406 64 406 118L406 189Q406 243 354 243M90 500L197 500L197 307L356 307Q415 307 445.50 276Q476 245 476 187L476 120Q476 62 445.50 31Q415 0 356 0L127 0L127 435L90 435L10 421L2 490L90 500Z"  horiz-adv-x="510" vert-adv-y="1000"  />

      
      <glyph glyph-name="uni044B" unicode="&#x044B;" d="M71 418L61 500L129 509L141 418L141 307L300 307Q359 307 389.50 276Q420 245 420 187L420 120Q420 62 389.50 31Q359 0 300 0L71 0L71 418M298 243L141 243L141 64L298 64Q326 64 338 76Q350 88 350 118L350 189Q350 218 338 230.50Q326 243 298 243M493 500L563 500L563 82L573 0L505-9L493 82L493 500Z"  horiz-adv-x="634" vert-adv-y="1000"  />

      
      <glyph glyph-name="uni044C" unicode="&#x044C;" d="M141 307L300 307Q359 307 389.50 276Q420 245 420 187L420 120Q420 62 389.50 31Q359 0 300 0L71 0L71 418L61 500L129 509L141 418L141 307M298 243L141 243L141 64L298 64Q350 64 350 118L350 189Q350 243 298 243Z"  horiz-adv-x="454" vert-adv-y="1000"  />

      
      <glyph glyph-name="uni044D" unicode="&#x044D;" d="M245 0L125 0L26 27L43 88L125 64L243 64Q295 64 295 118L295 225L121 225L121 290L295 290L295 381Q295 435 243 435L140 435L58 411L41 472L140 500L245 500Q304 500 334.50 468.50Q365 437 365 380L365 120Q365 62 334.50 31Q304 0 245 0Z"  horiz-adv-x="426" vert-adv-y="1000"  />

      
      <glyph glyph-name="uni044E" unicode="&#x044E;" d="M71 418L61 500L129 509L141 418L141 291L231 291L231 380Q231 437 261.50 468.50Q292 500 351 500L451 500Q510 500 540.50 468.50Q571 437 571 380L571 120Q571 62 540.50 31Q510 0 451 0L351 0Q292 0 261.50 31Q231 62 231 120L231 227L141 227L141 0L71 0L71 418M449 435L353 435Q301 435 301 381L301 118Q301 64 353 64L449 64Q501 64 501 118L501 381Q501 435 449 435Z"  horiz-adv-x="632" vert-adv-y="1000"  />

      
      <glyph glyph-name="uni044F" unicode="&#x044F;" d="M400 83L410 1L342-8L330 83L330 202L248 202L126 0L43 0L174 202Q107 206 79 238Q51 270 51 338L51 380Q51 437 81.50 468.50Q112 500 171 500L400 500L400 83M173 266L330 266L330 435L173 435Q145 435 133 420.50Q121 406 121 372L121 320Q121 266 173 266Z"  horiz-adv-x="471" vert-adv-y="1000"  />

      
      <glyph glyph-name="uni0451" unicode="&#x0451;" d="M181 0Q122 0 91.50 31Q61 62 61 120L61 380Q61 437 91.50 468.50Q122 500 181 500L276 500Q335 500 365.50 468.50Q396 437 396 380L396 276L341 227L131 227L131 118Q131 64 183 64L288 64L369 88L387 27L288 0L181 0M131 381L131 291L312 291L326 302L326 381Q326 435 274 435L183 435Q131 435 131 381M152 614L135 614Q119 614 108.50 624.50Q98 635 98 651L98 668Q98 685 108.50 695Q119 705 135 705L152 705Q169 705 179 695Q189 685 189 668L189 651Q189 635 179 624.50Q169 614 152 614M317 614L300 614Q283 614 273 624.50Q263 635 263 651L263 668Q263 685 273 695Q283 705 300 705L317 705Q333 705 343.50 695Q354 685 354 668L354 651Q354 635 343.50 624.50Q333 614 317 614Z"  horiz-adv-x="439" vert-adv-y="1000"  />

      
      <glyph glyph-name="uni0452" unicode="&#x0452;" d="M170 0L100 0L100 535L11 535L11 591L100 601L100 678L93 734L159 755L170 675L170 601L343 601L343 535L170 535L170 388L280 450L330 450Q388 450 419 418.50Q450 387 450 330L450-49Q450-132 418-168.50Q386-205 307-205L223-182L241-121L307-141L319-141Q356-141 368-121Q380-101 380-49L380 319Q380 356 367 370.50Q354 385 319 385L296 385L170 316L170 0Z"  horiz-adv-x="516" vert-adv-y="1000"  />

      
      <glyph glyph-name="uni0453" unicode="&#x0453;" d="M70 500L355 500L355 435L140 435L140 0L70 0L70 500M163 579L292 716Q333 701 338 662L191 551L163 579Z"  horiz-adv-x="376" vert-adv-y="1000"  />

      
      <glyph glyph-name="uni0454" unicode="&#x0454;" d="M400 27L301 0L181 0Q122 0 91.50 31Q61 62 61 120L61 362Q61 430 89 465Q117 500 181 500L280 500L310 496L395 472L378 411L311 430L280 435L183 435Q131 435 131 381L131 290L305 290L305 225L131 225L131 118Q131 64 183 64L285 64L316 69L383 88L400 27Z"  horiz-adv-x="426" vert-adv-y="1000"  />

      
      <glyph glyph-name="uni0455" unicode="&#x0455;" d="M274 435L192 435Q164 435 151 421.50Q138 408 138 374Q138 365 140.50 357.50Q143 350 150.50 342.50Q158 335 161.50 332Q165 329 328 224Q378 192 378 123Q378 0 254 0L161 0L61 27L79 88L161 64L256 64Q308 64 308 118Q308 149 303 157.50Q298 166 281 177L136 272Q98 297 83 319Q68 341 68 377Q68 436 98.50 468Q129 500 188 500L274 500L373 472L356 411L274 435Z"  horiz-adv-x="398" vert-adv-y="1000"  />

      
      <glyph glyph-name="uni0456" unicode="&#x0456;" d="M71 0L71 420L60 500L129 509L141 419L141 0L71 0M114 602L98 602Q82 602 72 611.50Q62 621 62 637L62 653Q62 669 72 679Q82 689 98 689L114 689Q130 689 139.50 679Q149 669 149 653L149 637Q149 621 139.50 611.50Q130 602 114 602Z"  horiz-adv-x="212" vert-adv-y="1000"  />

      
      <glyph glyph-name="uni0457" unicode="&#x0457;" d="M35 614L18 614Q2 614-8.50 624.50Q-19 635-19 651L-19 668Q-19 685-8.50 695Q2 705 18 705L35 705Q52 705 62 695Q72 685 72 668L72 651Q72 635 62 624.50Q52 614 35 614M200 614L183 614Q166 614 156 624.50Q146 635 146 651L146 668Q146 685 156 695Q166 705 183 705L200 705Q216 705 226.50 695Q237 685 237 668L237 651Q237 635 226.50 624.50Q216 614 200 614M71 0L71 420L60 500L129 509L141 419L141 0L71 0Z"  horiz-adv-x="212" vert-adv-y="1000"  />

      
      <glyph glyph-name="uni0458" unicode="&#x0458;" d="M3-233L-27-226L-86-209L-68-148L-2-168L10-168Q43-168 57-151Q71-134 71-97L71 420L60 500L129 509L141 419L141-71Q141-154 110.50-193.50Q80-233 3-233M113 602L97 602Q81 602 71.50 611.50Q62 621 62 637L62 653Q62 669 71.50 679Q81 689 97 689L113 689Q129 689 139 679Q149 669 149 653L149 637Q149 621 139 611.50Q129 602 113 602Z"  horiz-adv-x="212" vert-adv-y="1000"  />

      
      <glyph glyph-name="uni0459" unicode="&#x0459;" d="M579 243L422 243L422 64L579 64Q631 64 631 118L631 189Q631 243 579 243M352 435L186 435L165 114Q159 50 132 22Q105-6 42-6L26-6L26 58L42 58Q73 58 84.50 70Q96 82 99 116L125 500L422 500L422 307L581 307Q640 307 670.50 276Q701 245 701 187L701 120Q701 62 670.50 31Q640 0 581 0L352 0L352 435Z"  horiz-adv-x="773" vert-adv-y="1000"  />

      
      <glyph glyph-name="uni045A" unicode="&#x045A;" d="M578 227L421 227L421 64L565 64Q600 64 615 75Q630 86 630 118L630 161Q630 197 618.50 212Q607 227 578 227M351 291L351 500L421 500L421 291L580 291Q639 291 669.50 260Q700 229 700 171L700 120Q700 62 669.50 31Q639 0 580 0L351 0L351 227L141 227L141 0L71 0L71 418L61 500L129 509L141 418L141 291L351 291Z"  horiz-adv-x="761" vert-adv-y="1000"  />

      
      </font>
</defs>
</svg>
